<?xml version="1.0" standalone="no"?>
<!DOCTYPE svg PUBLIC "-//W3C//DTD SVG 20010904//EN"
 "http://www.w3.org/TR/2001/REC-SVG-20010904/DTD/svg10.dtd">
<svg version="1.0" xmlns="http://www.w3.org/2000/svg"
 width="1105.000000pt" height="1191.000000pt" viewBox="0 0 1105.000000 1191.000000"
 preserveAspectRatio="xMidYMid meet">

<g transform="translate(0.000000,1191.000000) scale(0.100000,-0.100000)"
fill="#000000" stroke="none">
<path d="M10 5959 c0 -4757 3 -5950 12 -5946 114 47 691 270 1103 425 1838
693 2336 880 2465 927 292 106 1625 606 2205 827 1020 389 4154 1564 4635
1738 201 73 416 151 478 174 l112 41 -2 1295 -3 1295 -5 -1224 -5 -1224 -35
-13 c-19 -6 -84 -30 -145 -52 -60 -22 -447 -161 -860 -310 -412 -148 -968
-353 -1235 -455 -266 -103 -487 -184 -490 -181 -5 6 -28 2304 -22 2317 2 4
181 7 398 7 l394 0 0 469 0 469 418 155 c722 270 1580 587 1586 587 3 0 7 -73
9 -162 1 -90 2 440 2 1177 0 1280 0 1290 -2 208 -3 -1105 -4 -1133 -22 -1143
-18 -9 -381 -147 -551 -210 -752 -275 -1892 -711 -1897 -726 -2 -6 3 -18 11
-29 13 -19 20 -17 193 48 99 37 183 67 186 67 4 0 7 -188 7 -418 l0 -419 -361
-6 c-199 -4 -366 -4 -370 -1 -5 3 -9 149 -9 326 l0 320 -24 -6 c-13 -3 -45
-15 -70 -26 -40 -17 -46 -23 -46 -50 l0 -30 -275 0 -275 0 0 406 c0 383 -1
406 -17 399 -10 -4 -133 -49 -273 -101 -140 -52 -285 -106 -322 -120 l-68 -26
0 -2007 0 -2007 -67 -24 c-38 -12 -86 -31 -108 -40 -22 -10 -308 -120 -635
-245 -327 -125 -660 -255 -740 -287 -80 -33 -336 -129 -570 -215 -234 -85
-434 -159 -445 -164 -60 -26 -675 -247 -700 -251 -16 -3 -38 -9 -47 -13 -17
-7 -18 91 -18 1978 l0 1984 68 6 c37 3 461 6 942 6 713 1 1332 6 1650 15 l45
1 3 113 3 112 -31 0 -30 0 0 -79 0 -79 -192 -6 c-106 -3 -656 -9 -1223 -12
-566 -3 -1099 -7 -1182 -9 l-153 -2 0 88 0 89 -30 0 -31 0 3 -117 3 -118 43
-3 42 -3 0 -1998 0 -1997 -37 -17 c-21 -9 -166 -63 -323 -120 -157 -58 -395
-148 -530 -202 -297 -118 -316 -126 -855 -325 -462 -170 -940 -349 -1284 -479
-118 -45 -217 -81 -220 -81 -3 0 -5 1065 -3 2367 1 1303 3 2470 2 2594 l0 226
628 6 c345 4 927 10 1295 14 l667 6 0 34 0 33 -60 0 -60 0 0 180 c0 153 -2
180 -15 180 -13 0 -15 29 -15 205 0 176 2 205 15 205 11 0 15 11 15 39 0 38 0
38 46 45 26 3 372 6 770 6 469 0 740 4 772 11 33 6 59 20 78 40 29 30 29 32
32 170 l4 139 -31 0 -31 0 0 -109 c0 -60 -3 -117 -6 -126 -20 -50 -69 -53
-1159 -60 -445 -3 -1015 -7 -1265 -10 -1719 -19 -1672 -18 -1681 -4 -5 8 -9
603 -9 1365 l0 1352 203 6 c111 3 569 10 1017 16 448 6 1278 17 1844 26 565 8
1030 13 1032 12 2 -2 6 -423 10 -936 l7 -932 39 0 38 0 0 60 c0 33 1 60 3 60
1 0 413 5 915 10 569 6 920 14 932 20 27 15 52 88 48 146 -3 47 -4 49 -35 52
l-33 3 0 180 c0 172 1 179 20 179 20 0 20 7 20 595 l0 595 185 0 185 0 0 55 0
56 -237 -6 c-131 -3 -1178 -21 -2328 -40 -2300 -38 -3069 -51 -3547 -61 l-318
-7 3 1324 2 1324 230 0 c132 1 163 -1 73 -2 l-158 -4 0 -825 c0 -749 1 -826
16 -820 9 3 20 6 25 6 5 0 9 11 9 25 l0 25 173 0 c96 0 390 3 655 7 l482 6 0
-22 0 -22 263 6 c327 8 2070 35 2231 35 l119 0 -6 519 -7 519 73 6 c39 3 250
10 467 16 217 5 1022 28 1789 50 766 23 1395 40 1396 38 3 -4 25 -1352 28
-1758 l2 -305 -157 -3 -158 -3 0 -49 0 -50 160 0 160 0 0 -368 c0 -203 3 -666
7 -1030 l6 -662 -36 -15 c-33 -13 -37 -19 -37 -50 0 -19 1 -35 3 -35 1 0 47
16 102 35 l100 35 -3 427 c-1 236 -7 1087 -12 1893 -10 1494 -15 1916 -27
2213 l-6 167 1441 0 1442 0 3 -1022 2 -1023 3 1028 2 1027 -5515 0 -5515 0 0
-5951z m8008 5770 l2 -167 -112 -6 c-62 -4 -882 -29 -1823 -56 -940 -28 -1747
-53 -1791 -56 l-82 -6 -6 -41 c-4 -26 -3 -43 4 -45 16 -6 14 -941 -2 -946 -7
-2 -458 -11 -1003 -20 -545 -9 -1097 -19 -1227 -23 l-238 -6 0 771 0 772 3138
-2 3137 -3 3 -166z m-6328 -219 l0 -300 -655 0 -655 0 0 295 0 294 148 3 c81
2 375 4 655 6 l507 3 0 -301z m6454 -312 c3 -128 7 -477 9 -776 l2 -542 -42 0
-41 0 -6 63 c-3 34 -8 280 -11 547 -3 267 -8 587 -12 713 l-6 227 50 0 51 0 6
-232z m-6784 -53 l0 -45 -150 0 -150 0 0 45 0 45 150 0 150 0 0 -45z m320 0
l0 -46 -147 3 -148 3 -3 28 c-7 56 -5 57 153 57 l145 0 0 -45z m-980 -5 l0
-40 -150 0 -150 0 0 40 0 40 150 0 150 0 0 -40z m320 0 l0 -40 -150 0 -150 0
0 40 0 40 150 0 150 0 0 -40z m-322 -118 l3 -43 -148 3 -148 3 -3 28 c-7 57
-5 58 150 55 l143 -3 3 -43z m320 0 l3 -43 -148 3 -148 3 -3 28 c-7 57 -5 58
150 55 l143 -3 3 -43z m342 8 l0 -40 -150 0 -150 0 0 40 0 40 150 0 150 0 0
-40z m320 0 l0 -40 -150 0 -150 0 0 33 c0 19 3 37 7 40 3 4 71 7 150 7 l143 0
0 -40z m-320 -115 l0 -46 -147 3 -148 3 -3 43 -3 42 150 0 151 0 0 -45z m325
0 l0 -40 -147 -3 -148 -3 0 46 0 46 148 -3 147 -3 0 -40z m-985 -5 l0 -41
-147 3 -148 3 -3 38 -3 37 150 0 151 0 0 -40z m320 0 l0 -40 -145 0 -145 0 0
40 0 40 145 0 145 0 0 -40z m340 -100 l0 -40 -150 0 -150 0 0 40 0 40 150 0
150 0 0 -40z m328 -2 l3 -38 -150 0 -151 0 0 40 0 41 148 -3 147 -3 3 -37z
m-988 -3 l0 -35 -150 0 -150 0 0 35 0 35 150 0 150 0 0 -35z m320 0 l0 -35
-145 0 -145 0 0 35 0 35 145 0 145 0 0 -35z m-320 -95 l0 -40 -145 0 -145 0 0
40 0 40 145 0 145 0 0 -40z m320 0 l0 -40 -145 0 -145 0 0 40 0 40 145 0 145
0 0 -40z m340 0 l0 -40 -150 0 -150 0 0 40 0 40 150 0 150 0 0 -40z m330 0 l0
-40 -150 0 -150 0 0 40 0 40 150 0 150 0 0 -40z m-990 -120 l0 -40 -145 0
-145 0 0 40 0 40 145 0 145 0 0 -40z m320 0 l0 -40 -145 0 -145 0 0 40 0 40
145 0 145 0 0 -40z m340 0 l0 -40 -150 0 -150 0 0 40 0 40 150 0 150 0 0 -40z
m330 0 l0 -40 -150 0 -150 0 0 40 0 40 150 0 150 0 0 -40z m-990 -110 l0 -40
-145 0 -145 0 0 40 0 40 145 0 145 0 0 -40z m320 0 l0 -40 -145 0 -145 0 0 40
0 40 145 0 145 0 0 -40z m340 0 l0 -40 -150 0 -150 0 0 40 0 40 150 0 150 0 0
-40z m330 0 l0 -40 -150 0 -150 0 0 40 0 40 150 0 150 0 0 -40z m-990 -110 l0
-40 -145 0 -145 0 0 40 0 40 145 0 145 0 0 -40z m320 0 l0 -40 -145 0 -145 0
0 40 0 40 145 0 145 0 0 -40z m340 0 l0 -40 -150 0 -150 0 0 40 0 40 150 0
150 0 0 -40z m330 0 l0 -40 -150 0 -150 0 0 40 0 40 150 0 150 0 0 -40z m4468
-1715 c2 -510 4 -590 17 -598 13 -7 15 -44 15 -236 0 -205 -2 -229 -17 -243
-16 -13 -98 -16 -603 -22 -322 -3 -723 -9 -891 -12 l-306 -7 -7 837 c-4 461
-6 840 -3 842 4 4 1707 33 1767 30 l25 -1 3 -590z m4245 -1569 c-3 -16 -725
-278 -736 -267 -6 6 -9 12 -6 15 2 2 162 62 354 134 324 121 393 142 388 118z
m-2955 -178 c-3 -20 -10 -23 -58 -26 -60 -4 -60 4 3 29 56 23 59 22 55 -3z
m-18 -88 l0 -40 -120 0 -120 0 0 29 c0 37 35 49 153 50 l87 1 0 -40z m-270
-20 c0 -17 -7 -20 -52 -20 -58 0 -58 4 -2 24 52 19 54 19 54 -4z m0 -90 l0
-40 -120 0 -120 0 0 34 c0 42 3 43 138 45 l102 1 0 -40z m270 0 l0 -40 -120 0
-120 0 0 40 0 40 120 0 120 0 0 -40z m-270 -115 l0 -45 -120 0 -120 0 0 45 0
45 120 0 120 0 0 -45z m270 0 l0 -45 -120 0 -120 0 0 45 0 45 120 0 120 0 0
-45z m-270 -110 l0 -45 -120 0 -120 0 0 38 c0 21 3 42 7 45 3 4 57 7 120 7
l113 0 0 -45z m270 0 l0 -45 -120 0 -120 0 0 45 0 45 120 0 120 0 0 -45z
m-3995 -65 c-4 -6 -137 -10 -366 -10 -233 0 -359 4 -359 10 0 6 129 10 366 10
241 0 363 -3 359 -10z m3725 -45 l0 -45 -120 0 -120 0 0 38 c0 21 3 42 7 45 3
4 57 7 120 7 l113 0 0 -45z m270 0 l0 -45 -120 0 -120 0 0 45 0 45 120 0 120
0 0 -45z m-4820 -20 l0 -25 -215 0 c-184 0 -215 -2 -215 -15 0 -13 31 -15 220
-15 l220 0 0 -205 c0 -130 -4 -205 -10 -205 -6 0 -10 -66 -10 -179 l0 -179
-482 -6 c-266 -3 -809 -7 -1208 -8 l-725 -3 -3 418 c-2 329 0 418 10 422 15 5
1357 21 1986 23 l432 2 0 -25z m4550 -95 l0 -40 -120 0 -120 0 0 40 0 40 120
0 120 0 0 -40z m270 0 l0 -40 -120 0 -120 0 0 40 0 40 120 0 120 0 0 -40z
m-262 -112 l3 -38 -125 0 -126 0 0 40 0 41 123 -3 122 -3 3 -37z m270 0 l3
-38 -125 0 -126 0 0 40 0 41 123 -3 122 -3 3 -37z m352 -8 l0 -40 -130 0 -130
0 0 40 0 40 130 0 130 0 0 -40z m270 0 l0 -40 -125 0 -125 0 0 40 0 40 125 0
125 0 0 -40z m-900 -110 l0 -40 -120 0 -120 0 0 40 0 40 120 0 120 0 0 -40z
m270 0 l0 -40 -120 0 -120 0 0 40 0 40 120 0 120 0 0 -40z m358 -7 l-3 -38
-122 -3 -123 -3 0 41 0 40 126 0 125 0 -3 -37z m270 0 l-3 -38 -120 0 -120 0
-3 38 -3 37 126 0 126 0 -3 -37z m-898 -93 l0 -40 -120 0 -120 0 0 40 0 40
120 0 120 0 0 -40z m270 0 l0 -40 -120 0 -120 0 0 40 0 40 120 0 120 0 0 -40z
m360 -10 l0 -40 -125 0 -125 0 0 40 0 40 125 0 125 0 0 -40z m270 0 l0 -40
-125 0 -125 0 0 40 0 40 125 0 125 0 0 -40z m-892 -97 l-3 -38 -120 0 -120 0
-3 38 -3 37 126 0 126 0 -3 -37z m262 -3 l0 -40 -120 0 -120 0 0 40 0 40 120
0 120 0 0 -40z m358 -2 l3 -38 -130 0 -131 0 0 33 c0 19 3 37 7 41 4 3 61 5
127 4 l121 -3 3 -37z m270 0 l3 -38 -125 0 -126 0 0 33 c0 19 3 37 7 41 4 3
59 5 122 4 l116 -3 3 -37z m-898 -108 l0 -40 -120 0 -120 0 0 40 0 40 120 0
120 0 0 -40z m270 0 l0 -40 -120 0 -120 0 0 40 0 40 120 0 120 0 0 -40z m360
-10 l0 -40 -125 0 -125 0 0 40 0 40 125 0 125 0 0 -40z m270 0 l0 -40 -125 0
-125 0 0 40 0 40 125 0 125 0 0 -40z m-900 -100 l0 -40 -120 0 -120 0 0 40 0
40 120 0 120 0 0 -40z m270 0 l0 -40 -120 0 -120 0 0 40 0 40 120 0 120 0 0
-40z m358 -2 l3 -38 -125 0 -126 0 0 40 0 41 123 -3 122 -3 3 -37z m270 0 l3
-38 -125 0 -126 0 0 33 c0 19 3 37 7 41 4 3 59 5 122 4 l116 -3 3 -37z m-608
-74 c0 -13 6 -15 28 -9 15 5 156 10 315 12 l287 4 0 -279 0 -279 -574 -212
c-315 -116 -579 -211 -585 -211 -8 0 -11 137 -11 495 l0 495 270 0 c242 0 270
-2 270 -16z m-1935 -4 c4 -7 -122 -10 -369 -10 -244 0 -376 4 -376 10 0 6 130
10 369 10 236 0 372 -4 376 -10z m2569 -752 c3 -35 8 -399 10 -809 l5 -745
-532 -199 c-293 -109 -560 -208 -595 -221 l-62 -24 2 812 3 812 570 217 c314
119 575 217 582 218 7 1 13 -22 17 -61z m2690 -625 c4 -16 9 -35 12 -44 3 -10
-3 -19 -13 -22 -10 -3 -350 -125 -757 -271 -406 -147 -740 -265 -741 -264 -8
9 -35 82 -31 85 8 8 1491 541 1507 542 10 1 19 -10 23 -26z m-4081 -1525 c10
-23 14 -45 9 -49 -7 -6 -1454 -564 -1481 -571 -8 -2 -19 13 -28 37 -12 35 -12
41 1 50 13 8 1459 570 1477 574 3 0 13 -18 22 -41z m-2400 -921 c5 -21 8 -40
6 -42 -14 -13 -684 -254 -690 -248 -4 4 -9 26 -11 47 l-3 40 330 122 c182 68
337 122 345 121 8 -1 18 -19 23 -40z m-899 -285 c2 -4 7 -23 11 -43 l7 -35
-329 -122 c-180 -67 -333 -122 -340 -122 -12 0 -41 76 -32 84 7 6 654 245 666
245 6 1 14 -2 17 -7z m-1230 -504 c4 -23 3 -45 -1 -49 -10 -9 -1393 -531
-1412 -533 -8 0 -21 18 -30 42 -13 36 -13 44 -2 51 23 15 1409 530 1427 530 6
1 14 -18 18 -41z"/>
<path d="M4892 8471 c-24 -14 -9 -45 26 -55 22 -6 32 -14 30 -25 -5 -23 -39
-26 -55 -5 -7 10 -15 15 -18 12 -11 -10 26 -38 50 -38 25 0 46 26 38 47 -2 7
-20 17 -39 23 -19 6 -34 16 -34 21 0 16 32 23 51 10 11 -6 19 -7 19 -2 0 19
-46 27 -68 12z"/>
<path d="M5223 8463 c-11 -22 -2 -95 12 -100 6 -2 9 19 8 53 -2 62 -7 75 -20
47z"/>
<path d="M4997 8444 c-15 -15 -6 -24 13 -12 15 10 22 10 32 0 9 -9 9 -12 -2
-12 -12 0 -12 -2 -2 -8 18 -12 4 -42 -19 -42 -21 0 -26 25 -6 33 7 3 4 6 -6 6
-14 1 -18 -5 -15 -21 2 -18 10 -23 36 -24 33 -1 33 0 30 40 -3 35 -6 41 -28
44 -14 2 -29 0 -33 -4z"/>
<path d="M5091 8400 l2 -45 6 40 c4 27 12 41 24 43 14 3 17 -4 17 -37 0 -23 5
-41 10 -41 15 0 12 66 -3 78 -7 6 -23 10 -35 9 -19 -1 -22 -7 -21 -47z"/>
<path d="M5180 8405 c0 -25 5 -45 10 -45 6 0 10 20 10 45 0 25 -4 45 -10 45
-5 0 -10 -20 -10 -45z"/>
<path d="M5277 8444 c-15 -15 -6 -24 13 -12 15 10 22 10 32 0 9 -9 9 -12 -2
-12 -12 0 -12 -2 -2 -8 18 -12 4 -42 -19 -42 -21 0 -26 25 -6 33 7 3 4 6 -6 6
-14 1 -18 -5 -15 -21 2 -18 10 -23 36 -24 33 -1 33 0 30 40 -3 35 -6 41 -28
44 -14 2 -29 0 -33 -4z"/>
<path d="M5372 8403 c1 -40 2 -42 5 -13 2 19 11 41 20 48 15 11 14 12 -5 12
-20 0 -22 -5 -20 -47z"/>
<path d="M5420 8405 c0 -25 5 -45 10 -45 6 0 10 20 10 45 0 25 -4 45 -10 45
-5 0 -10 -20 -10 -45z"/>
<path d="M5472 8438 c-7 -7 -12 -21 -12 -33 0 -46 53 -62 71 -21 21 45 -26 87
-59 54z m43 -33 c0 -33 -28 -47 -39 -19 -10 25 3 56 22 52 11 -2 17 -13 17
-33z"/>
<path d="M5561 8441 c-17 -11 -6 -30 26 -42 32 -12 19 -33 -16 -24 -19 5 -23
4 -15 -5 17 -17 58 -8 62 12 2 12 -6 21 -22 28 -35 13 -34 34 0 26 17 -5 23
-3 19 4 -8 12 -35 13 -54 1z"/>
<path d="M990 5964 l0 -77 42 6 c50 7 68 27 68 77 0 46 -25 70 -73 70 l-37 0
0 -76z m90 37 c25 -47 0 -91 -51 -91 -29 0 -29 1 -29 55 l0 55 35 0 c24 0 37
-6 45 -19z"/>
<path d="M1560 6030 c0 -5 5 -10 10 -10 6 0 10 5 10 10 0 6 -4 10 -10 10 -5 0
-10 -4 -10 -10z"/>
<path d="M1608 6013 c-7 -27 6 -116 17 -120 8 -2 11 50 6 125 -1 18 -18 15
-23 -5z"/>
<path d="M1134 5975 c-29 -44 12 -99 56 -75 27 14 25 22 -3 15 -15 -4 -28 -1
-36 9 -12 14 -9 16 23 16 28 0 36 4 36 18 0 44 -50 56 -76 17z m61 -5 c4 -6
-7 -10 -25 -10 -18 0 -29 4 -25 10 3 6 15 10 25 10 10 0 22 -4 25 -10z"/>
<path d="M1240 5922 c0 -46 4 -71 10 -67 6 3 10 15 10 27 0 14 5 18 15 14 18
-7 55 27 55 50 0 35 -20 54 -55 51 l-35 -2 0 -73z m68 25 c4 -33 -22 -47 -45
-24 -22 21 -8 59 20 55 16 -2 23 -11 25 -31z"/>
<path d="M1362 5988 c-20 -20 -15 -76 9 -88 26 -15 69 11 69 41 0 50 -47 78
-78 47z m53 -43 c0 -23 -5 -30 -19 -30 -24 0 -41 27 -33 49 4 11 15 16 29 14
18 -2 23 -9 23 -33z"/>
<path d="M1467 5994 c-17 -17 -5 -43 24 -53 36 -12 30 -36 -7 -27 -28 7 -33
-10 -5 -19 23 -7 48 2 55 20 6 17 -19 45 -39 45 -8 0 -17 5 -21 11 -5 8 3 10
25 7 20 -3 30 -1 28 6 -4 13 -50 20 -60 10z"/>
<path d="M1560 5945 c0 -30 5 -55 10 -55 6 0 10 25 10 55 0 30 -4 55 -10 55
-5 0 -10 -25 -10 -55z"/>
<path d="M1672 5988 c-20 -20 -15 -76 9 -88 26 -15 69 11 69 41 0 50 -47 78
-78 47z m53 -43 c0 -23 -5 -30 -19 -30 -24 0 -41 27 -33 49 4 11 15 16 29 14
18 -2 23 -9 23 -33z"/>
<path d="M5820 10520 c0 -5 14 -10 30 -10 l30 0 0 -80 c0 -47 4 -80 10 -80 6
0 10 33 10 80 l0 80 30 0 c17 0 30 5 30 10 0 6 -30 10 -70 10 -40 0 -70 -4
-70 -10z"/>
<path d="M5967 10462 c-52 -58 17 -143 79 -98 25 19 12 31 -15 14 -15 -9 -26
-10 -38 -2 -35 22 -26 34 27 34 49 0 51 1 45 23 -14 46 -68 62 -98 29z m71
-19 c2 -9 -8 -13 -33 -13 -33 0 -36 2 -25 15 15 18 51 16 58 -2z"/>
<path d="M6090 10413 c0 -35 4 -63 10 -63 6 0 10 16 10 36 0 42 15 74 35 74 8
0 15 4 15 9 0 5 -16 9 -35 8 l-35 -1 0 -63z"/>
<path d="M6170 10413 c0 -35 4 -63 10 -63 6 0 10 16 10 36 0 42 15 74 35 74 8
0 15 4 15 9 0 5 -16 9 -35 8 l-35 -1 0 -63z"/>
<path d="M6265 10464 c-9 -9 -13 -19 -10 -22 3 -3 11 0 17 6 15 15 55 16 63 1
9 -14 2 -20 -36 -28 -43 -9 -59 -35 -36 -58 14 -15 22 -16 47 -6 17 6 30 7 30
2 0 -5 5 -9 10 -9 14 0 12 104 -2 118 -17 17 -64 15 -83 -4z m75 -63 c0 -15
-28 -33 -46 -29 -24 4 -29 25 -7 31 31 8 53 7 53 -2z"/>
<path d="M6390 10470 c0 -5 14 -10 30 -10 39 0 38 -9 -5 -50 -50 -48 -46 -60
20 -60 64 0 75 17 14 22 l-41 3 41 47 c23 25 41 49 41 52 0 3 -22 6 -50 6 -27
0 -50 -4 -50 -10z"/>
<path d="M6524 10466 c-10 -8 -16 -18 -11 -22 4 -4 13 -2 19 4 17 17 58 15 58
-3 0 -16 -5 -19 -52 -29 -21 -5 -28 -12 -28 -31 0 -29 37 -43 69 -25 14 7 21
7 21 0 0 -5 5 -10 10 -10 17 0 12 97 -6 114 -19 20 -54 20 -80 2z m64 -73 c-4
-23 -58 -31 -58 -9 0 13 16 22 48 25 8 0 12 -7 10 -16z"/>
<path d="M1930 7990 c0 -5 14 -10 30 -10 l30 0 0 -80 c0 -47 4 -80 10 -80 6 0
10 33 10 80 l0 80 30 0 c17 0 30 5 30 10 0 6 -30 10 -70 10 -40 0 -70 -4 -70
-10z"/>
<path d="M2200 7910 c0 -53 4 -90 10 -90 6 0 10 37 10 90 0 53 -4 90 -10 90
-6 0 -10 -37 -10 -90z"/>
<path d="M2260 7910 c0 -53 4 -90 10 -90 6 0 10 37 10 90 0 53 -4 90 -10 90
-6 0 -10 -37 -10 -90z"/>
<path d="M2070 7935 c-16 -19 -5 -34 12 -17 17 17 58 15 58 -2 0 -8 -16 -18
-37 -23 -28 -6 -39 -15 -41 -30 -4 -30 30 -48 60 -32 16 9 23 9 26 0 2 -6 8
-11 13 -11 12 0 11 87 -1 111 -13 23 -72 26 -90 4z m70 -69 c0 -18 -39 -31
-52 -18 -15 15 0 32 28 32 14 0 24 -6 24 -14z"/>
<path d="M2325 7934 c-25 -26 -16 -85 16 -103 24 -13 29 -13 54 3 31 20 27 34
-4 14 -15 -9 -26 -10 -38 -2 -34 21 -26 34 21 34 39 0 46 3 46 19 0 45 -62 68
-95 35z m73 -21 c2 -9 -8 -13 -32 -13 -34 0 -44 8 -29 24 11 11 56 2 61 -11z"/>
<path d="M2450 7883 c0 -35 4 -63 10 -63 6 0 10 23 10 50 0 45 3 52 25 60 35
13 31 20 -10 18 l-35 -1 0 -64z"/>
<path d="M4930 3961 c0 -5 12 -11 28 -13 27 -3 27 -4 30 -80 4 -103 22 -101
22 2 l0 80 31 0 c17 0 28 4 24 10 -8 13 -135 13 -135 1z"/>
<path d="M5200 3880 c0 -53 4 -90 10 -90 6 0 10 37 10 90 0 53 -4 90 -10 90
-6 0 -10 -37 -10 -90z"/>
<path d="M5260 3881 c0 -54 4 -91 10 -91 6 0 10 35 10 84 0 47 -4 88 -10 91
-6 4 -10 -27 -10 -84z"/>
<path d="M5088 3913 c-9 -2 -19 -11 -22 -19 -7 -17 -2 -18 23 -2 22 14 51 4
51 -17 0 -10 -10 -15 -27 -15 -39 0 -55 -13 -51 -41 3 -22 8 -24 56 -25 l52
-1 0 46 c0 25 -4 51 -8 58 -9 14 -50 23 -74 16z m49 -88 c-4 -8 -18 -15 -32
-15 -35 0 -33 28 3 32 33 4 36 3 29 -17z"/>
<path d="M5325 3895 c-14 -13 -25 -32 -25 -42 0 -32 29 -63 59 -63 30 0 70 24
59 36 -4 4 -14 1 -22 -5 -20 -17 -60 -10 -64 12 -3 14 4 17 42 17 39 0 46 3
46 19 0 21 -35 51 -58 51 -7 0 -24 -11 -37 -25z m65 -10 c11 -13 7 -15 -24
-15 -35 0 -49 13 -23 23 22 9 34 7 47 -8z"/>
<path d="M5450 3853 c0 -36 4 -63 10 -63 6 0 10 23 10 51 0 42 3 52 20 56 31
8 24 22 -10 20 -30 -2 -30 -2 -30 -64z"/>
<path d="M1368 3393 l32 -4 0 -80 c0 -46 4 -79 10 -79 6 0 10 33 10 79 l0 80
33 4 c17 2 -2 4 -43 4 -41 0 -60 -2 -42 -4z"/>
<path d="M1610 3315 c0 -50 4 -85 10 -85 6 0 10 35 10 85 0 50 -4 85 -10 85
-6 0 -10 -35 -10 -85z"/>
<path d="M1670 3315 c0 -50 4 -85 10 -85 6 0 10 35 10 85 0 50 -4 85 -10 85
-6 0 -10 -35 -10 -85z"/>
<path d="M1485 3339 c-11 -17 2 -21 24 -7 18 11 23 10 38 -4 18 -19 21 -16
-42 -36 -23 -6 -30 -15 -30 -33 0 -22 4 -24 53 -25 l52 -1 0 43 c0 64 -7 74
-50 74 -22 0 -42 -5 -45 -11z m75 -69 c0 -17 -49 -35 -61 -23 -6 6 -8 16 -5
22 9 14 66 14 66 1z"/>
<path d="M1732 3338 c-7 -7 -12 -28 -12 -48 0 -20 5 -41 12 -48 17 -17 73 -15
88 3 15 17 7 19 -21 5 -23 -13 -59 3 -59 25 0 11 12 15 45 15 37 0 45 3 45 18
0 27 -20 42 -55 42 -17 0 -36 -5 -43 -12z m62 -4 c30 -12 18 -34 -19 -34 -37
0 -43 8 -23 28 14 14 20 14 42 6z"/>
<path d="M1860 3288 c0 -32 4 -58 10 -58 6 0 10 20 10 44 0 34 5 48 21 60 21
14 21 15 -10 14 l-31 -1 0 -59z"/>
</g>
</svg>
