<?xml version="1.0" standalone="no"?>
<!DOCTYPE svg PUBLIC "-//W3C//DTD SVG 20010904//EN"
 "http://www.w3.org/TR/2001/REC-SVG-20010904/DTD/svg10.dtd">
<svg version="1.0" xmlns="http://www.w3.org/2000/svg"
 width="8822.000000pt" height="8429.000000pt" viewBox="0 0 8822.000000 8429.000000"
 preserveAspectRatio="xMidYMid meet">

<g transform="translate(0.000000,8429.000000) scale(0.100000,-0.100000)"
fill="#000000" stroke="none">
<path d="M75072 84274 c-18 -8 -1492 -564 -3275 -1235 -1783 -671 -3413 -1285
-3622 -1364 -209 -79 -2088 -785 -4175 -1570 -2087 -785 -3966 -1491 -4175
-1570 -780 -294 -10147 -3818 -14115 -5310 -2263 -851 -4477 -1684 -4920
-1850 -443 -167 -2634 -992 -4870 -1833 -2236 -842 -5129 -1931 -6430 -2420
-1301 -490 -3742 -1408 -5425 -2042 -3592 -1352 -3419 -1287 -7045 -2650
-2566 -965 -4286 -1612 -7195 -2706 -560 -211 -1027 -392 -1036 -401 -9 -10
-516 -697 -1126 -1528 -988 -1345 -3693 -5025 -6636 -9025 l-1026 -1395 -1
-23492 0 -23493 37565 0 37565 0 0 6918 c0 3804 0 17398 0 30208 l0 23291 468
176 c2048 771 6393 2407 6420 2418 l32 14 0 6705 c0 4592 -4 6704 -11 6702 -5
-1 -543 -203 -1195 -448 -652 -245 -1187 -445 -1189 -443 -1 2 -1020 1703
-2264 3781 l-2261 3776 0 401 c0 315 -3 401 -12 400 -7 0 -28 -7 -46 -15z m21
-17935 c-5 -4 -163 -66 -353 -137 l-345 -130 -3 8574 c-1 4716 -4 8574 -5
8574 -2 0 -1258 -472 -2791 -1050 -1534 -577 -2791 -1050 -2795 -1050 -11 0
-252 653 -244 661 5 5 1478 562 3273 1238 l3265 1229 3 -8951 c1 -4923 -1
-8954 -5 -8958z m2296 13319 c1227 -2050 2231 -3731 2231 -3736 0 -7 -4412
-1674 -4472 -1690 -17 -4 -18 220 -18 4594 0 3864 2 4595 14 4579 7 -11 1017
-1697 2245 -3747z m-3029 -3013 l0 -6535 -2225 -2 -2225 -3 0 -2661 c0 -2528
-1 -2662 -17 -2669 -10 -4 -274 -103 -588 -222 -313 -118 -813 -306 -1110
-418 -297 -112 -821 -309 -1165 -438 -344 -130 -1248 -470 -2010 -757 -762
-287 -1664 -626 -2005 -754 -1597 -600 -2554 -960 -3285 -1235 l-795 -299 -5
596 -5 597 -292 3 -293 2 0 -200 0 -200 90 0 90 0 0 -684 c0 -377 4 -687 8
-690 4 -2 719 263 1587 590 1961 739 2536 955 4315 1624 1877 705 2289 861
5330 2005 1755 660 2601 974 2616 971 13 -4 35 -1 49 6 22 10 25 16 20 37 -4
15 -8 44 -9 66 -2 58 -74 242 -95 248 -10 2 -21 18 -24 36 -4 17 -13 34 -20
37 -19 7 -67 -13 -67 -29 0 -8 -338 -140 -927 -362 -511 -191 -943 -354 -960
-362 l-33 -13 0 2390 0 2390 2025 0 2025 0 0 -1629 0 -1629 -37 -13 c-21 -7
-59 -13 -86 -14 -63 -2 -72 -13 -53 -60 9 -20 14 -47 11 -59 -7 -28 68 -220
87 -224 8 -2 21 -21 28 -43 8 -22 17 -42 21 -45 11 -7 65 22 72 38 2 7 167 74
366 148 l361 135 0 158 0 157 1535 0 1535 0 0 -2119 0 -2120 -102 -39 c-57
-21 -921 -347 -1920 -723 l-1818 -683 0 -17683 0 -17683 370 0 370 0 0 -1210
0 -1210 -370 0 -370 0 0 -4745 0 -4745 -3897 -2 -3898 -3 -3 -1357 -2 -1358
-4328 -2 -4327 -3 -3 -4887 -2 -4888 -10270 0 -10270 0 0 12535 c0 8350 -3
12535 -10 12535 -14 0 -14 8996 0 9005 7 4 10 1188 10 3521 0 3102 -2 3514
-15 3514 -13 0 -15 -45 -17 -322 l-3 -323 -167 -3 -168 -2 -2 321 c-2 247 -6
323 -15 327 -10 3 -13 -27 -13 -127 l0 -131 -4760 0 -4760 0 0 -398 c0 -443 1
-452 58 -452 17 0 32 -4 32 -10 0 -6 43 -10 110 -10 67 0 110 4 110 10 0 6 17
10 39 10 35 0 39 3 45 31 3 17 6 119 6 225 l0 194 4560 0 4560 0 0 -2985 0
-2985 -4560 0 -4560 0 0 1714 c0 942 -3 1728 -6 1745 -6 28 -10 31 -45 31 -28
0 -39 4 -39 15 0 12 -19 15 -110 15 -91 0 -110 -3 -110 -15 0 -10 -10 -15 -32
-15 -26 0 -36 -6 -45 -27 -17 -35 -19 -3488 -3 -3498 14 -8 14 -762 0 -770 -7
-4 -10 -673 -10 -1976 l0 -1969 170 0 170 0 0 -2145 0 -2145 -170 0 -170 0 0
-2299 c0 -1768 3 -2302 12 -2307 6 -4 14 -2 16 4 5 15 342 17 342 2 0 -5 7
-10 15 -10 13 0 15 241 15 2105 l0 2105 4560 0 4560 0 0 -3200 0 -3200 -4560
0 -4560 0 0 43 c0 49 -7 62 -26 46 -9 -7 -75 -9 -194 -7 l-180 3 0 -1007 c0
-611 4 -1009 9 -1013 5 -3 12 -1 16 5 8 14 342 14 350 0 4 -6 11 -8 16 -5 5 4
9 310 9 771 l0 764 4558 -3 4557 -2 3 -1902 2 -1903 -1693 0 c-1303 0 -1696
-3 -1705 -12 -8 -8 -12 -54 -12 -139 0 -126 7 -156 33 -130 8 8 472 11 1694
11 l1683 0 0 -1105 0 -1105 -1560 0 -1560 0 0 228 c0 164 -3 231 -12 240 -18
18 -252 17 -267 -2 -8 -9 -11 -117 -9 -377 l3 -364 1703 -3 1702 -2 0 -1095 0
-1095 -1595 0 -1595 0 0 280 0 281 -132 -3 -133 -3 -3 -278 -2 -277 -1110 0
-1110 0 0 280 0 281 -132 -3 -133 -3 -3 -278 -2 -277 -1585 0 -1585 0 0 1095
0 1095 1697 2 1698 3 3 364 c2 260 -1 368 -9 377 -15 19 -249 20 -267 2 -9 -9
-12 -76 -12 -240 l0 -228 -1552 2 -1553 3 -3 1103 -2 1102 1679 0 c1161 0
1682 -3 1686 -10 5 -8 11 -7 21 1 18 15 20 249 2 267 -9 9 -400 12 -1700 12
l-1688 0 0 90 c0 82 -8 107 -25 80 -8 -14 -342 -13 -350 0 -4 6 -11 8 -16 5
-12 -8 -12 -7082 0 -7090 5 -3 12 -1 16 5 8 14 342 14 350 0 4 -6 11 -8 16 -5
5 4 9 310 9 771 l0 764 4450 0 c2960 0 4450 3 4450 10 0 6 43 10 110 10 l110
0 0 -1900 0 -1900 -1694 0 c-1433 0 -1695 -2 -1705 -14 -8 -9 -11 -56 -9 -142
l3 -129 1703 -3 1702 -2 0 -1095 0 -1095 -1560 0 -1560 0 0 228 c0 164 -3 231
-12 240 -18 18 -252 17 -267 -2 -8 -9 -11 -117 -9 -377 l3 -364 1703 -3 1702
-2 0 -1255 0 -1255 -1595 0 -1595 0 0 440 0 441 -132 -3 -133 -3 -3 -437 -2
-438 -2485 0 -2485 0 0 2490 0 2490 1358 2 1357 3 0 140 0 140 -1702 3 -1703
2 0 75 0 75 -200 0 -200 0 0 -265 0 -265 -710 0 c-437 0 -710 -4 -710 -9 0 -6
4 -13 10 -16 14 -8 14 -345 0 -345 -5 0 -10 -7 -10 -15 0 -13 129 -15 1105
-15 l1105 0 0 -2245 0 -2245 -3270 0 -3270 0 0 2245 0 2245 868 0 867 0 0 200
0 200 -867 0 -868 0 0 1150 0 1150 -1095 0 -1095 0 0 173 0 172 -162 -2 -163
-2 -3 -353 c-1 -194 0 -363 3 -375 l5 -23 1055 0 1055 0 0 -3390 0 -3390
-10255 0 -10255 0 0 5800 0 5800 9158 -2 9157 -3 3 -248 c2 -225 7 -269 27
-237 9 15 342 13 347 -2 2 -6 10 -8 16 -4 9 5 12 159 12 632 l0 624 -200 0
-200 0 0 -180 0 -180 -8873 0 c-4881 0 -9003 3 -9160 7 l-287 6 -2 5511 c-3
5239 -4 5511 -20 5514 -17 3 -18 -26 -18 -502 l0 -506 -355 0 -355 0 0 1245 0
1245 355 0 355 0 0 -578 c0 -318 3 -582 7 -585 34 -34 33 -130 33 5659 l0
5644 9155 0 9155 0 1 -187 c1 -104 4 -250 8 -326 l6 -138 195 0 195 -1 0 569
0 568 -194 3 c-212 3 -211 3 -211 -56 l0 -32 -1112 4 c-612 2 -4732 5 -9155 5
l-8043 1 0 5440 0 5441 910 1237 c500 680 1446 1966 2101 2857 2405 3270 5246
7135 5448 7412 l45 62 546 205 c930 349 2403 903 4485 1686 1100 414 2362 889
2805 1055 1540 579 2749 1035 3477 1309 402 152 736 276 742 276 6 0 8 -115 5
-312 -2 -172 -9 -2628 -15 -5458 -22 -10464 -22 -10485 -42 -10504 -16 -16
-17 -194 -17 -3092 l0 -3074 -1082 -2 -1083 -3 -3 -445 -2 -445 200 0 200 0 0
243 0 242 1090 0 1090 0 0 2658 c0 1461 3 2944 7 3295 l6 637 558 0 c316 0
560 4 563 9 3 5 6 604 6 1332 l0 1324 -162 0 -163 0 -3 -1159 -2 -1159 -233 6
c-127 4 -306 7 -396 7 l-164 0 7 2603 c3 1431 8 3207 11 3947 3 740 7 2598 10
4130 6 3395 15 5363 23 5372 7 7 185 75 1462 555 1353 508 7774 2925 9475
3566 1654 623 1980 746 2860 1077 495 186 1014 382 1154 434 139 53 257 96
263 96 6 0 8 -1067 4 -3027 -2 -1666 -6 -6559 -7 -10875 l-2 -7848 -5109 0
-5108 0 -2 1138 -3 1137 -163 3 -164 3 3 -1346 3 -1345 5273 0 5273 0 0 -162
0 -163 187 3 c104 1 194 5 201 7 9 3 12 39 12 132 l0 128 2247 0 2248 0 3 58
3 57 4199 0 4200 0 0 1560 0 1559 93 3 92 3 3 198 2 197 -295 0 -295 0 0
-1560 0 -1560 -6241 0 c-3432 0 -6245 -2 -6250 -6 -5 -3 -9 3243 -9 8160 0
5432 -3 8167 -10 8171 -7 4 -10 936 -10 2764 l0 2757 1653 622 c7600 2859
10415 3918 11012 4145 138 52 1123 424 2190 825 1067 402 1952 735 1968 741
l27 11 0 -1570 0 -1569 -122 -3 -123 -3 0 -3725 0 -3725 123 -3 122 -3 0
-7234 0 -7234 -90 -3 -91 -3 0 -195 -1 -195 291 -3 291 -2 0 1432 c0 788 1
3337 3 5663 l2 4230 93 3 92 3 -2 197 -3 197 -92 3 -93 3 0 1569 0 1569 123 3
122 3 3 3728 2 3727 -125 0 -125 0 0 1644 0 1644 28 10 c15 6 59 23 97 37 39
15 662 249 1385 522 723 272 1540 579 1815 683 275 103 939 353 1475 555 536
202 1016 382 1065 400 50 18 1544 579 3320 1248 1777 668 3604 1356 4060 1527
457 172 1024 385 1260 475 237 89 808 305 1270 479 462 174 1549 583 2415 910
866 327 1576 595 1578 595 1 1 2 -2940 2 -6534z m-5757 4898 c48 -125 86 -228
84 -229 -1 -1 -1847 -695 -4102 -1543 -2255 -848 -4117 -1549 -4138 -1558 -22
-10 -41 -13 -46 -7 -10 10 -173 445 -169 449 4 4 8271 3113 8279 3114 4 1 45
-101 92 -226z m128 -338 c35 -90 35 -101 0 -113 l-29 -10 -31 85 c-36 99 -36
100 -13 106 36 10 47 0 73 -68z m-111 9 c7 -19 10 -37 7 -40 -2 -2 -1823 -689
-4046 -1525 -2401 -904 -4046 -1518 -4052 -1512 -5 5 -11 22 -14 38 l-6 30
4043 1522 c2224 837 4046 1522 4050 1522 3 1 12 -15 18 -35z m40 -105 c10 -23
10 -33 2 -38 -6 -4 -1828 -690 -4047 -1525 -2635 -992 -4040 -1515 -4046
-1509 -5 5 -11 22 -12 37 l-2 27 4035 1519 c2219 836 4040 1519 4046 1520 6 0
17 -14 24 -31z m-8392 -2645 c35 -93 76 -203 92 -244 15 -41 41 -112 58 -157
17 -45 27 -85 23 -88 -8 -5 -5720 -2155 -5725 -2155 -6 0 -249 661 -244 665 9
9 5713 2154 5722 2152 5 -2 38 -79 74 -173z m236 -351 c16 -43 31 -83 33 -89
2 -7 -10 -16 -27 -22 -34 -13 -26 -24 -75 105 l-24 62 27 10 c15 5 29 10 32
10 3 1 18 -34 34 -76z m21173 -4120 c-2 -2 -1356 -2 -3008 -1 l-3005 3 3005
1131 3006 1130 3 -1130 c1 -621 1 -1131 -1 -1133z m-32970 65 c46 -122 80
-225 75 -229 -13 -13 -1345 -510 -1350 -504 -4 3 -43 103 -88 223 -59 155 -79
219 -71 225 14 10 1328 506 1342 507 6 0 47 -100 92 -222z m122 -329 c1 -9
-49 -30 -59 -24 -4 3 -13 19 -19 36 -10 29 -9 31 22 44 31 13 32 13 44 -18 6
-18 12 -35 12 -38z m-1510 -194 c46 -124 82 -228 79 -230 -2 -3 -1543 -584
-3424 -1291 -1880 -707 -3421 -1288 -3423 -1290 -46 -44 335 96 3419 1256
1872 704 3413 1283 3425 1286 18 5 25 0 34 -27 6 -18 9 -34 6 -37 -3 -3 -1542
-584 -3422 -1291 -1879 -708 -3418 -1292 -3421 -1299 -2 -7 3 -12 11 -12 8 0
1550 578 3428 1285 1877 707 3416 1285 3419 1285 4 0 12 -16 18 -36 10 -33 9
-36 -16 -45 -15 -6 -1163 -438 -2552 -961 -1389 -522 -3688 -1388 -5110 -1923
-1422 -535 -2873 -1081 -3225 -1213 -352 -132 -878 -330 -1170 -440 -291 -110
-831 -313 -1200 -452 -368 -139 -1034 -389 -1480 -557 -445 -168 -816 -306
-823 -307 -15 -1 -264 645 -253 655 5 6 2548 963 9796 3690 1183 445 2967
1117 3965 1493 998 376 1820 684 1825 685 6 0 48 -101 94 -224z m1408 191 c9
-29 8 -36 -6 -41 -9 -4 -272 -103 -585 -221 -433 -163 -571 -212 -578 -202 -7
12 -10 22 -12 50 -1 9 1127 444 1160 447 6 1 15 -14 21 -33z m126 -53 c2 -10
8 -25 11 -34 6 -12 -1 -19 -25 -28 -18 -6 -33 -10 -34 -9 -6 12 -25 60 -25 64
0 6 40 22 56 23 7 1 14 -7 17 -16z m-87 -58 l6 -30 -582 -219 c-325 -122 -585
-215 -590 -210 -5 5 -11 21 -15 35 -6 26 -4 27 222 112 779 295 939 354 945
348 4 -4 10 -20 14 -36z m32914 -1565 l0 -1530 -3275 0 -3275 0 0 1530 0 1530
3275 0 3275 0 0 -1530z m-34150 1195 c0 -6 -13 -16 -29 -22 -26 -9 -30 -8 -40
14 -17 37 -13 51 17 61 24 8 28 6 39 -17 7 -14 12 -31 13 -36z m40 -105 c0 -5
-14 -13 -30 -19 -28 -9 -32 -8 -41 16 -5 14 -12 30 -15 35 -3 4 9 15 28 22 32
14 33 14 45 -16 7 -17 13 -34 13 -38z m6620 -4420 l0 -3701 -107 3 -108 3 -3
3698 -2 3697 110 0 110 0 0 -3700z m620 0 l0 -3700 -105 0 -105 0 0 3700 0
3700 105 0 105 0 0 -3700z m23390 1465 l0 -305 -1535 0 -1535 0 0 305 0 305
1535 0 1535 0 0 -305z m368 -3676 l-3 -3981 -167 -63 -168 -63 0 4044 0 4044
170 0 170 0 -2 -3981z m1552 3676 l0 -305 -760 0 -760 0 0 305 0 305 760 0
760 0 0 -305z m1560 0 l0 -305 -765 0 -765 0 0 305 0 305 765 0 765 0 0 -305z
m-7670 -275 l0 -170 -227 2 -228 3 -3 155 c-1 85 0 160 2 167 4 10 56 13 231
13 l225 0 0 -170z m4190 -365 l0 -305 -1535 0 -1535 0 0 305 0 305 1535 0
1535 0 0 -305z m1918 -2 l2 -303 -760 0 -760 0 0 305 0 305 758 -2 757 -3 3
-302z m1562 2 l0 -305 -765 0 -765 0 0 305 0 305 765 0 765 0 0 -305z m-1562
-647 l2 -308 -760 0 -760 0 0 310 0 310 758 -2 757 -3 3 -307z m1560 0 l2
-308 -765 0 -765 0 0 310 0 310 763 -2 762 -3 3 -307z m-3478 -3 l0 -305
-1535 0 -1535 0 0 305 0 305 1535 0 1535 0 0 -305z m0 -640 l0 -305 -1535 0
-1535 0 0 305 0 305 1535 0 1535 0 0 -305z m1920 0 l0 -305 -760 0 -760 0 0
305 0 305 760 0 760 0 0 -305z m1560 0 l0 -305 -765 0 -765 0 0 305 0 305 765
0 765 0 0 -305z m-3480 -640 l0 -305 -1535 0 -1535 0 0 298 c0 164 3 302 7
305 3 4 694 7 1535 7 l1528 0 0 -305z m1915 -5 l0 -305 -757 -3 -758 -2 0 310
0 310 758 -2 757 -3 0 -305z m1565 0 l0 -310 -765 0 -765 0 0 310 0 310 765 0
765 0 0 -310z m-49991 41 c45 -117 81 -216 81 -220 0 -4 -30 -19 -67 -34 -167
-65 -1959 -737 -1972 -740 -9 -1 -41 70 -98 221 -47 123 -83 225 -80 228 13
13 2043 771 2049 766 3 -4 43 -103 87 -221z m130 -343 c29 -77 30 -84 14 -95
-31 -24 -49 -15 -63 30 -8 23 -22 61 -32 85 -18 43 -18 43 5 52 39 16 44 11
76 -72z m-111 15 c6 -20 10 -38 9 -39 -5 -4 -1949 -734 -1956 -734 -4 0 -13
16 -19 36 -9 32 -8 36 11 45 34 14 1931 728 1938 728 3 1 11 -16 17 -36z
m46492 -358 l0 -305 -1535 0 -1535 0 0 305 0 305 1535 0 1535 0 0 -305z m1920
0 l0 -305 -760 0 -760 0 0 305 0 305 760 0 760 0 0 -305z m1560 0 l0 -305
-765 0 -765 0 0 305 0 305 765 0 765 0 0 -305z m-49932 253 c6 -17 11 -33 9
-34 -2 -2 -177 -68 -1439 -543 -279 -105 -512 -191 -517 -191 -10 0 -34 60
-27 67 8 8 1931 731 1946 732 9 1 21 -13 28 -31z m-2143 -353 c61 -161 80
-222 71 -227 -19 -11 -6154 -2318 -6163 -2318 -7 0 -168 425 -168 444 0 10
6144 2326 6164 2323 8 -1 48 -93 96 -222z m50515 -540 l0 -305 -760 0 -760 0
0 305 0 305 760 0 760 0 0 -305z m1560 0 l0 -305 -765 0 -765 0 0 305 0 305
765 0 765 0 0 -305z m-51965 248 c8 -20 14 -37 13 -38 -9 -4 -60 -25 -62 -25
-2 0 -7 11 -10 24 -3 13 -8 31 -12 39 -5 13 6 20 53 36 2 1 10 -15 18 -36z
m-92 -36 c5 -16 5 -32 1 -36 -19 -17 -5977 -2252 -5984 -2244 -3 4 -11 20 -17
34 l-12 27 842 316 c463 175 1807 681 2987 1126 1180 444 2151 807 2159 807 8
-1 19 -15 24 -30z m135 -74 c9 -26 8 -32 -6 -36 -10 -3 -24 -8 -33 -12 -13 -5
-20 2 -29 30 -7 20 -10 37 -8 39 17 11 54 22 59 17 4 -3 11 -20 17 -38z m-98
-24 c8 -17 9 -34 4 -39 -20 -19 -5975 -2253 -5984 -2244 -5 5 -11 21 -15 35
l-6 26 683 257 c376 141 1720 648 2988 1125 1268 478 2308 869 2311 870 4 0
12 -13 19 -30z m44575 -66 c43 -107 125 -327 125 -334 0 -24 -17 -5 -30 34 -8
23 -21 42 -29 42 -18 0 -82 166 -70 181 6 7 3 28 -6 53 -13 39 -5 60 10 24z
m5880 -693 l0 -305 -757 -3 -758 -2 0 310 0 310 758 -2 757 -3 0 -305z m1563
-2 l2 -308 -765 0 -765 0 0 310 0 310 763 -2 762 -3 3 -307z m-9378 -62 c6
-19 19 -36 28 -38 20 -6 76 -156 67 -179 -3 -8 1 -34 10 -58 10 -29 11 -41 3
-39 -11 4 -138 321 -138 346 0 23 18 3 30 -32z m7820 -581 l0 -305 -760 0
-760 0 0 305 0 305 760 0 760 0 0 -305z m1560 0 l0 -305 -765 0 -765 0 0 305
0 305 765 0 765 0 0 -305z m-58282 -509 c45 -121 81 -220 79 -222 -1 -2 -493
-187 -1092 -413 -600 -226 -1113 -419 -1142 -430 l-51 -20 -15 37 c-119 305
-159 413 -155 417 12 13 2284 862 2289 857 3 -4 43 -106 87 -226z m56722 -131
l0 -305 -760 0 -760 0 0 305 0 305 760 0 760 0 0 -305z m1560 0 l0 -305 -765
0 -765 0 0 305 0 305 765 0 765 0 0 -305z m-58070 -155 c0 -5 -14 -13 -31 -19
-29 -10 -31 -9 -45 25 -17 41 -19 38 21 51 28 9 31 7 43 -20 6 -16 12 -33 12
-37z m-102 -6 c10 -33 9 -36 -16 -45 -231 -90 -2133 -803 -2148 -806 -16 -4
-24 3 -34 26 -7 18 -10 35 -6 39 10 10 2157 820 2177 821 10 1 20 -12 27 -35z
m131 -65 c6 -18 11 -33 11 -35 0 -3 -63 -25 -65 -22 -6 12 -25 60 -25 64 0 6
40 22 57 23 6 1 16 -13 22 -30z m-93 -44 l6 -30 -1079 -407 c-593 -223 -1085
-409 -1094 -413 -13 -5 -20 2 -29 30 -7 20 -10 38 -8 40 13 12 2185 822 2190
816 4 -3 10 -20 14 -36z m56569 -375 l0 -305 -757 -3 -758 -2 0 310 0 310 758
-2 757 -3 0 -305z m1560 127 l0 -179 -343 -129 -343 -129 -419 0 -420 0 0 310
0 310 763 -2 762 -3 0 -178z m-60619 -169 c36 -95 93 -241 125 -324 33 -83 59
-153 59 -156 0 -8 -1160 -442 -1166 -436 -3 3 -60 152 -128 331 l-123 324 571
216 c314 119 576 216 583 216 6 1 42 -77 79 -171z m45473 -345 l30 -81 -31
-11 c-17 -6 -33 -10 -34 -8 -6 6 -64 170 -61 173 9 9 53 21 59 15 4 -3 20 -43
37 -88z m-46729 64 c0 -2 38 -103 84 -224 l83 -221 -4096 -1542 c-2253 -848
-4098 -1544 -4100 -1546 -46 -44 388 116 4050 1495 2218 836 4041 1522 4049
1525 11 5 19 -4 29 -29 7 -20 10 -39 7 -42 -3 -4 -1825 -691 -4048 -1527
-2223 -837 -4043 -1527 -4046 -1534 -2 -7 3 -12 11 -12 8 0 1831 684 4052
1520 2222 836 4042 1520 4046 1520 11 0 30 -63 22 -71 -5 -3 -1828 -691 -4053
-1528 -2225 -837 -4627 -1741 -5337 -2009 l-1293 -487 -1021 -1390 c-561 -764
-1027 -1398 -1034 -1408 -11 -16 -36 0 -294 189 -154 114 -281 212 -280 218 0
6 492 679 1092 1496 l1092 1484 115 44 c63 24 1256 472 2650 997 1394 525
3809 1433 5365 2019 1557 586 2836 1065 2843 1066 6 0 12 -1 12 -3z m1503 -80
c30 -82 29 -94 -12 -99 -20 -3 -27 6 -51 67 -34 82 -36 102 -12 108 36 10 45
0 75 -76z m45108 46 c5 -14 8 -30 6 -36 -1 -5 -889 -343 -1972 -751 l-1970
-742 -17 35 c-9 20 -14 37 -10 39 85 34 3931 1481 3940 1481 7 1 17 -11 23
-26z m13709 -132 l0 -148 -712 -268 c-392 -147 -734 -276 -760 -286 l-48 -19
0 435 0 435 760 0 760 0 0 -149z m415 9 c-203 -77 -373 -140 -377 -140 -5 0
-8 63 -8 140 l0 140 378 0 377 -1 -370 -139z m-14087 25 c7 -14 12 -31 12 -38
0 -7 -828 -324 -1962 -751 -1080 -406 -1968 -741 -1975 -743 -10 -4 -49 66
-41 72 7 5 3934 1483 3944 1484 6 1 16 -10 22 -24z m144 -99 c10 -27 17 -51
14 -53 -9 -9 -4102 -1546 -4120 -1547 -15 -1 -25 11 -38 48 -10 27 -17 50 -16
51 2 2 777 294 1723 650 946 356 1873 705 2060 776 187 70 344 127 349 126 5
-2 17 -25 28 -51z m-46583 -326 c17 -43 31 -84 31 -89 0 -5 -13 -14 -29 -19
l-30 -10 -33 86 c-34 86 -34 87 -14 99 36 21 44 15 75 -67z m42440 -1036 c17
-48 30 -89 28 -90 -2 -2 -17 -7 -34 -10 -24 -5 -31 -2 -35 13 -3 10 -17 49
-31 86 l-26 68 22 9 c39 16 44 11 76 -76z m12651 -8284 l0 -7640 -355 0 -355
0 0 7508 0 7507 348 132 c191 72 350 132 355 132 4 1 7 -3437 7 -7639z
m-20682 3848 l-3 -33 -92 -3 -93 -3 0 36 0 35 96 0 95 0 -3 -32z m142 -2183
l0 -2215 -55 0 -55 0 0 2215 0 2215 55 0 55 0 0 -2215z m-260 0 l0 -2115 -40
0 -40 0 0 2115 0 2115 40 0 40 0 0 -2115z m120 0 l0 -2115 -45 0 -45 0 0 2115
0 2115 45 0 45 0 0 -2115z m-47612 926 c101 -74 181 -138 180 -142 -9 -23
-4565 -6208 -4573 -6208 -17 0 -380 276 -378 286 2 8 4414 6014 4541 6180 15
20 29 30 36 25 7 -4 94 -67 194 -141z m287 -212 c71 -52 74 -58 51 -90 -12
-17 -18 -15 -89 38 -75 56 -75 56 -59 79 9 13 19 24 22 24 3 0 37 -23 75 -51z
m-96 -50 l24 -20 -19 -27 c-11 -15 -1014 -1378 -2228 -3029 l-2208 -3003 -29
21 c-17 12 -29 25 -27 30 8 22 4444 6048 4453 6048 6 0 21 -9 34 -20z m109
-90 c-2 -3 -1004 -1368 -2228 -3031 l-2225 -3025 -28 20 c-15 12 -25 27 -23
34 3 7 1005 1372 2226 3033 l2221 3020 30 -22 c16 -12 28 -25 27 -29z m47310
-2756 l3 -33 -95 0 -96 0 0 35 0 36 93 -3 92 -3 3 -32z m-52119 -3203 l279
-205 -18 -25 c-10 -14 -424 -576 -919 -1250 l-901 -1225 0 -612 0 -613 -355 0
-355 0 0 728 0 729 987 1342 c542 738 990 1340 995 1339 4 -2 133 -95 287
-208z m302 -99 c32 -27 32 -27 15 -54 l-18 -26 -69 50 c-38 28 -71 55 -74 60
-4 5 2 20 12 33 l18 24 42 -30 c23 -17 56 -43 74 -57z m42069 -2456 l0 -95
-30 0 -30 0 0 95 0 95 30 0 30 0 0 -95z m4270 55 l0 -40 -2115 0 c-1873 0
-2116 2 -2121 15 -4 8 -3 26 0 40 l6 25 2115 0 2115 0 0 -40z m94 24 c3 -9 6
-51 6 -95 l0 -79 -35 0 -35 0 0 95 0 95 29 0 c17 0 31 -6 35 -16z m-94 -134
l0 -40 -2120 0 -2120 0 0 40 0 40 2120 0 2120 0 0 -40z m100 -130 l0 -60
-2215 0 -2215 0 0 60 0 60 2215 0 2215 0 0 -60z m-7210 -135 c0 -33 -4 -45
-15 -45 -11 0 -15 12 -15 45 0 33 4 45 15 45 11 0 15 -12 15 -45z m-20330
-915 l0 -30 -95 0 -95 0 0 30 0 30 95 0 95 0 0 -30z m150 -2185 l0 -2215 -60
0 -60 0 0 2215 0 2215 60 0 60 0 0 -2215z m-260 0 l0 -2115 -40 0 -40 0 0
2115 0 2115 40 0 40 0 0 -2115z m110 0 l0 -2115 -40 0 -40 0 0 2115 0 2115 40
0 40 0 0 -2115z m53080 1990 l0 -35 -95 0 -95 0 0 28 c0 16 3 32 7 35 3 4 46
7 95 7 l88 0 0 -35z m520 -4395 l0 -4430 -245 0 -245 0 0 4423 c0 2433 3 4427
7 4430 3 4 114 7 245 7 l238 0 0 -4430z m-74580 -15 l0 -4425 -245 0 -245 0 0
4425 0 4425 245 0 245 0 0 -4425z m220 4395 l0 -30 -95 0 -95 0 0 30 0 30 95
0 95 0 0 -30z m73730 -4380 l0 -4330 -40 0 -40 0 0 4330 0 4330 40 0 40 0 0
-4330z m110 0 l0 -4330 -40 0 -40 0 0 4330 0 4330 40 0 40 0 0 -4330z m-73950
-15 l0 -4325 -40 0 -40 0 0 4325 0 4325 40 0 40 0 0 -4325z m110 0 l0 -4325
-40 0 -40 0 0 4325 0 4325 40 0 40 0 0 -4325z m20760 240 l0 -35 -95 0 -95 0
0 35 0 35 95 0 95 0 0 -35z m53080 -4620 l0 -35 -95 0 -95 0 0 35 0 35 95 0
95 0 0 -35z m-73840 -15 l0 -30 -95 0 -95 0 0 30 0 30 95 0 95 0 0 -30z
m74360 -1285 l0 -1235 -355 0 -355 0 0 1235 0 1235 355 0 355 0 0 -1235z
m-74360 40 l0 -1185 -355 0 -355 0 0 1185 0 1185 355 0 355 0 0 -1185z m36590
-155 l0 -360 -180 0 -181 0 3 148 3 147 85 6 c47 3 68 6 48 7 -44 2 -40 -18
-38 204 1 78 -3 129 -10 133 -7 4 -10 -48 -10 -164 l0 -171 -40 0 c-38 0 -52
12 -30 25 6 4 10 80 10 196 l0 189 170 0 170 0 0 -360z m-5070 -2365 l0 -1965
-2210 0 -2210 0 0 1663 c0 915 -3 1799 -7 1965 l-6 302 2216 0 2217 0 0 -1965z
m2560 1940 l0 -25 -1075 0 -1075 0 0 25 0 25 1075 0 1075 0 0 -25z m2150 0 l0
-25 -1055 0 -1055 0 0 25 0 25 1055 0 1055 0 0 -25z m-2150 -385 l0 -330
-1075 0 -1075 0 0 330 0 330 1075 0 1075 0 0 -330z m2150 0 l0 -330 -1055 0
-1055 0 0 330 0 330 1055 0 1055 0 0 -330z m-9160 -1650 l0 -1630 -170 0 -170
0 0 1630 0 1630 170 0 170 0 0 -1630z m-27290 -3035 l0 -4425 -245 0 -245 0 0
4425 0 4425 245 0 245 0 0 -4425z m220 4395 l0 -30 -95 0 -95 0 0 30 0 30 95
0 95 0 0 -30z m73840 -85 l0 -35 -95 0 -95 0 0 35 0 35 95 0 95 0 0 -35z m520
-4405 l0 -4440 -245 0 -245 0 0 4440 0 4440 245 0 245 0 0 -4440z m-74470 100
l0 -4330 -40 0 -40 0 0 4330 0 4330 40 0 40 0 0 -4330z m110 0 l0 -4330 -40 0
-40 0 0 4330 0 4330 40 0 40 0 0 -4330z m34080 3985 l0 -325 -1075 0 -1075 0
0 325 0 325 1075 0 1075 0 0 -325z m2150 0 l0 -325 -1055 0 -1055 0 0 325 0
325 1055 0 1055 0 0 -325z m37500 -4085 l0 -4340 -40 0 -40 0 0 4340 0 4340
40 0 40 0 0 -4340z m110 0 l0 -4340 -40 0 -40 0 0 4340 0 4340 40 0 40 0 0
-4340z m-39760 3390 l0 -330 -1075 0 -1075 0 0 330 0 330 1075 0 1075 0 0
-330z m2150 0 l0 -330 -1055 0 -1055 0 0 330 0 330 1055 0 1055 0 0 -330z
m-2150 -690 l0 -330 -1075 0 -1075 0 0 330 0 330 1075 0 1075 0 0 -330z m2150
0 l0 -330 -1055 0 -1055 0 0 330 0 330 1055 0 1055 0 0 -330z m-2150 -695 l0
-325 -1075 0 -1075 0 0 325 0 325 1075 0 1075 0 0 -325z m2150 0 l0 -325
-1055 0 -1055 0 0 325 0 325 1055 0 1055 0 0 -325z m-2150 -695 l0 -330 -1075
0 -1075 0 0 330 0 330 1075 0 1075 0 0 -330z m2150 0 l0 -330 -1055 0 -1055 0
0 330 0 330 1055 0 1055 0 0 -330z m0 -2555 l0 -2195 -2150 0 -2150 0 0 2195
0 2195 2150 0 2150 0 0 -2195z m-8490 1030 l0 -1065 -330 0 -330 0 0 1065 0
1065 330 0 330 0 0 -1065z m690 0 l0 -1065 -330 0 -330 0 0 1065 0 1065 330 0
330 0 0 -1065z m690 0 l0 -1065 -325 0 -325 0 0 1065 0 1065 325 0 325 0 0
-1065z m700 0 l0 -1065 -330 0 -330 0 0 1065 0 1065 330 0 330 0 0 -1065z
m690 0 l0 -1065 -330 0 -330 0 0 1065 0 1065 330 0 330 0 0 -1065z m690 0 l0
-1065 -330 0 -330 0 0 1065 0 1065 330 0 330 0 0 -1065z m700 0 l0 -1065 -330
0 -330 0 0 1065 0 1065 330 0 330 0 0 -1065z m-4160 -2160 l0 -1065 -330 0
-330 0 0 1065 0 1065 330 0 330 0 0 -1065z m690 0 l0 -1065 -330 0 -330 0 0
1065 0 1065 330 0 330 0 0 -1065z m690 0 l0 -1065 -325 0 -325 0 0 1065 0
1065 325 0 325 0 0 -1065z m700 0 l0 -1065 -330 0 -330 0 0 1065 0 1065 330 0
330 0 0 -1065z m690 0 l0 -1065 -330 0 -330 0 0 1065 0 1065 330 0 330 0 0
-1065z m690 0 l0 -1065 -330 0 -330 0 0 1065 0 1065 330 0 330 0 0 -1065z
m700 0 l0 -1065 -330 0 -330 0 0 1065 0 1065 330 0 330 0 0 -1065z m-5050
-3550 l0 -1695 -60 0 -60 0 0 1695 0 1695 60 0 60 0 0 -1695z m220 1660 l0
-35 -95 0 -95 0 0 35 0 35 95 0 95 0 0 -35z m-27070 -30 l0 -35 -95 0 -95 0 0
35 0 35 95 0 95 0 0 -35z m27070 -1630 l0 -1595 -95 0 -95 0 0 1595 0 1595 95
0 95 0 0 -1595z m46770 1520 l0 -35 -95 0 -95 0 0 35 0 35 95 0 95 0 0 -35z
m-74060 -6920 l0 -4435 -245 0 -245 0 0 4435 0 4435 245 0 245 0 0 -4435z
m220 4405 l0 -30 -95 0 -95 0 0 30 0 30 95 0 95 0 0 -30z m73840 -35 l0 -35
-95 0 -95 0 0 35 0 35 95 0 95 0 0 -35z m520 -4405 l0 -4440 -245 0 -245 0 0
4440 0 4440 245 0 245 0 0 -4440z m-74470 35 l0 -4335 -40 0 -40 0 0 4335 0
4335 40 0 40 0 0 -4335z m110 0 l0 -4335 -40 0 -40 0 0 4335 0 4335 40 0 40 0
0 -4335z m73730 -35 l0 -4340 -40 0 -40 0 0 4340 0 4340 40 0 40 0 0 -4340z
m110 0 l0 -4340 -40 0 -40 0 0 4340 0 4340 40 0 40 0 0 -4340z m-46770 3770
l0 -30 -95 0 -95 0 0 30 0 30 95 0 95 0 0 -30z m-27070 -8135 l0 -35 -95 0
-95 0 0 35 0 35 95 0 95 0 0 -35z m73840 -40 l0 -35 -95 0 -95 0 0 28 c0 16 3
31 6 35 3 3 46 6 95 6 l89 0 0 -34z m-73840 -1315 l0 -1280 -355 0 -355 0 0
1280 0 1280 355 0 355 0 0 -1280z m74360 -5275 l0 -6525 -355 0 -355 0 0 3691
c0 3504 1 3692 18 3705 16 12 16 13 0 19 -17 7 -18 150 -18 2821 l0 2813 355
1 355 0 0 -6525z m-7920 4160 l0 -1405 -4440 0 -4440 0 0 45 0 45 4333 2 4332
3 3 1358 2 1357 105 0 105 0 0 -1405z m7180 -930 l0 -2335 -3575 0 -3575 0 0
2335 0 2335 3575 0 3575 0 0 -2335z m-73840 -3710 l0 -4435 -245 0 -245 0 0
4435 0 4435 245 0 245 0 0 -4435z m220 4405 l0 -30 -95 0 -95 0 0 30 0 30 95
0 95 0 0 -30z m-110 -4405 l0 -4335 -40 0 -40 0 0 4335 0 4335 40 0 40 0 0
-4335z m110 0 l0 -4335 -40 0 -40 0 0 4335 0 4335 40 0 40 0 0 -4335z m59017
2288 l3 -913 -730 0 -730 0 0 915 0 915 728 -2 727 -3 2 -912z m613 467 l0
-450 -290 0 -290 0 0 450 0 450 290 0 290 0 0 -450z m620 0 l0 -450 -295 0
-295 0 0 450 0 450 295 0 295 0 0 -450z m620 0 l0 -450 -295 0 -295 0 0 450 0
450 295 0 295 0 0 -450z m620 0 l0 -450 -295 0 -295 0 0 450 0 450 295 0 295
0 0 -450z m620 0 l0 -450 -295 0 -295 0 0 450 0 450 295 0 295 0 0 -450z m620
0 l0 -450 -295 0 -295 0 0 450 0 450 295 0 295 0 0 -450z m620 0 l0 -450 -295
0 -295 0 0 450 0 450 295 0 295 0 0 -450z m618 -2 l2 -448 -295 0 -295 0 0
450 0 450 293 -2 292 -3 3 -447z m620 0 l2 -448 -295 0 -295 0 0 450 0 450
293 -2 292 -3 3 -447z m612 2 l0 -450 -290 0 -290 0 0 450 0 450 290 0 290 0
0 -450z m620 0 l0 -450 -295 0 -295 0 0 450 0 450 295 0 295 0 0 -450z m620
13 l0 -438 -29 30 c-16 17 -122 134 -236 260 -114 127 -214 237 -221 245 -10
10 -17 11 -25 3 -11 -11 44 -73 399 -460 l94 -103 -286 0 -286 0 0 450 0 450
295 0 295 0 0 -437z m-6810 -943 l0 -450 -290 0 -290 0 0 450 0 450 290 0 290
0 0 -450z m620 0 l0 -450 -295 0 -295 0 0 450 0 450 295 0 295 0 0 -450z m620
0 l0 -450 -295 0 -295 0 0 450 0 450 295 0 295 0 0 -450z m620 0 l0 -450 -295
0 -295 0 0 450 0 450 295 0 295 0 0 -450z m620 0 l0 -450 -295 0 -295 0 0 450
0 450 295 0 295 0 0 -450z m620 0 l0 -450 -295 0 -295 0 0 450 0 450 295 0
295 0 0 -450z m620 0 l0 -450 -295 0 -295 0 0 450 0 450 295 0 295 0 0 -450z
m618 -2 l2 -448 -295 0 -295 0 0 450 0 450 293 -2 292 -3 3 -447z m620 0 l2
-448 -295 0 -295 0 0 450 0 450 293 -2 292 -3 3 -447z m612 2 l0 -450 -290 0
-290 0 0 450 0 450 290 0 290 0 0 -450z m620 0 l0 -450 -295 0 -295 0 0 450 0
450 295 0 295 0 0 -450z m573 418 c-17 -18 -130 -143 -252 -277 -158 -173
-219 -247 -211 -255 12 -12 -14 -39 265 269 120 132 224 247 231 255 12 12 14
-52 14 -423 l0 -437 -295 0 -295 0 0 450 0 450 287 0 287 0 -31 -32z m7227
-4593 l0 -3695 -8015 0 -8015 0 0 3695 0 3695 8015 0 8015 0 0 -3695z m-73620
-2055 l0 -30 -95 0 -95 0 0 30 0 30 95 0 95 0 0 -30z m0 -855 l0 -785 -355 0
-355 0 0 785 0 785 355 0 355 0 0 -785z m36590 -470 l0 -315 -170 0 -170 0 0
315 0 315 170 0 170 0 0 -315z m-15670 -115 l0 -200 -170 0 -170 0 0 200 0
200 170 0 170 0 0 -200z m53440 -591 l0 -359 -37535 0 -37535 0 0 353 c0 195
2 356 4 358 2 2 16893 5 37535 5 l37531 2 0 -359z"/>
<path d="M64700 72365 l0 -125 -370 0 c-240 0 -370 -4 -370 -10 0 -6 130 -10
370 -10 l370 0 0 -125 c0 -77 4 -125 10 -125 6 0 10 93 10 260 0 167 -4 260
-10 260 -6 0 -10 -48 -10 -125z"/>
<path d="M63960 71912 c0 -5 53 -28 118 -53 l117 -44 0 -184 0 -183 -117 -46
c-65 -24 -118 -49 -118 -53 0 -5 4 -9 9 -9 5 0 153 54 328 121 175 66 342 130
371 141 29 11 52 24 50 30 -4 10 -722 288 -745 288 -7 0 -13 -4 -13 -8z m494
-196 c120 -46 214 -86 209 -89 -8 -5 -89 -36 -370 -143 l-63 -24 0 170 c0 94
1 170 3 170 1 0 100 -38 221 -84z"/>
<path d="M63960 70960 c0 -140 4 -220 10 -220 6 0 10 77 10 210 l0 210 370 0
c240 0 370 4 370 10 0 6 -133 10 -380 10 l-380 0 0 -220z"/>
<path d="M63960 70360 c0 -140 4 -220 10 -220 6 0 10 77 10 210 l0 210 370 0
c240 0 370 4 370 10 0 6 -133 10 -380 10 l-380 0 0 -220z"/>
<path d="M63960 69740 c0 -153 4 -240 10 -240 6 0 10 83 10 230 l0 230 183 -2
182 -3 3 -137 c4 -185 22 -183 22 2 l0 140 165 0 165 0 0 -230 c0 -147 4 -230
10 -230 6 0 10 87 10 240 l0 240 -380 0 -380 0 0 -240z"/>
<path d="M63962 69298 c4 -10 54 -14 196 -16 l192 -2 0 -109 c0 -90 -3 -110
-17 -123 -10 -8 -98 -65 -195 -127 -98 -62 -178 -117 -178 -123 0 -16 14 -8
193 106 92 59 174 109 182 112 11 5 15 -1 15 -24 0 -38 26 -110 48 -135 57
-65 141 -84 210 -48 95 49 112 98 112 327 l0 174 -381 0 c-300 0 -380 -3 -377
-12z m738 -166 c0 -154 -13 -224 -49 -266 -22 -25 -85 -56 -116 -56 -14 0 -42
9 -63 19 -85 44 -102 92 -102 297 l0 154 165 0 165 0 0 -148z"/>
<path d="M71517 69003 c-4 -3 -7 -59 -7 -123 0 -185 43 -275 160 -335 128 -65
259 -73 397 -23 170 61 213 134 213 360 l0 128 -378 0 c-208 0 -382 -3 -385
-7z m743 -126 c0 -195 -42 -271 -182 -326 -77 -31 -86 -32 -192 -29 -132 5
-206 29 -272 90 -60 55 -74 103 -74 255 l0 123 360 0 360 0 0 -113z"/>
<path d="M71668 68282 c-88 -32 -158 -128 -158 -217 0 -56 34 -126 84 -174 47
-46 60 -31 14 17 -20 20 -43 51 -52 69 -22 45 -21 135 3 182 34 65 129 121
207 121 l34 0 0 -210 0 -210 48 0 c63 0 133 43 162 99 41 82 21 200 -48 273
-57 62 -195 85 -294 50z m270 -65 c49 -46 72 -98 72 -157 0 -57 -10 -81 -49
-123 -34 -37 -72 -57 -111 -57 l-30 0 0 200 0 199 42 -15 c24 -8 58 -29 76
-47z"/>
<path d="M71270 67620 c0 -6 62 -10 167 -10 l167 0 -26 -27 c-70 -75 -86 -168
-43 -252 78 -154 304 -191 422 -69 57 60 73 96 73 168 0 66 -16 107 -58 153
l-26 27 42 0 c23 0 42 5 42 10 0 6 -133 10 -380 10 -247 0 -380 -4 -380 -10z
m677 -42 c45 -48 63 -90 63 -148 0 -195 -258 -292 -403 -152 -53 51 -67 82
-67 147 0 63 17 104 63 153 l31 32 141 0 141 0 31 -32z"/>
<path d="M71532 66937 l-22 -23 25 -24 25 -23 25 23 25 24 -22 23 c-12 13 -24
23 -28 23 -4 0 -16 -10 -28 -23z m43 -16 c7 -12 -12 -24 -25 -16 -11 7 -4 25
10 25 5 0 11 -4 15 -9z"/>
<path d="M45857 62484 c-4 -4 -7 -61 -7 -126 l0 -118 -364 0 c-233 0 -367 -4
-371 -10 -4 -7 120 -10 364 -10 l370 0 3 -122 c2 -76 7 -122 13 -121 12 4 19
493 7 505 -5 5 -11 5 -15 2z"/>
<path d="M45110 61911 c0 -5 15 -14 33 -20 17 -6 74 -28 125 -47 l92 -36 -2
-181 -3 -181 -120 -45 c-65 -26 -117 -50 -115 -56 3 -5 8 -9 12 -8 41 14 726
277 738 283 12 7 5 13 -30 29 -69 30 -708 271 -720 271 -5 0 -10 -4 -10 -9z
m498 -196 c117 -44 212 -83 212 -86 0 -5 -421 -169 -435 -169 -3 0 -5 77 -5
171 0 94 4 169 8 167 5 -1 104 -39 220 -83z"/>
<path d="M45117 61173 c-11 -11 -8 -431 3 -438 6 -4 11 71 12 207 l3 213 373
3 c242 1 371 6 367 12 -7 11 -747 14 -758 3z"/>
<path d="M45117 60573 c-11 -11 -8 -431 3 -438 6 -4 11 71 12 207 l3 213 373
3 c242 1 371 6 367 12 -7 11 -747 14 -758 3z"/>
<path d="M45110 59740 c0 -153 4 -240 10 -240 6 0 10 82 10 225 l0 225 185 0
185 0 0 -140 c0 -87 4 -140 10 -140 6 0 10 53 10 140 l0 140 165 0 165 0 2
-225 c2 -142 7 -225 13 -225 6 0 10 86 10 238 l0 237 -382 3 -383 2 0 -240z"/>
<path d="M45115 59290 c4 -6 80 -10 196 -10 l189 0 0 -114 0 -114 -195 -123
c-107 -68 -195 -127 -195 -131 0 -19 34 -1 202 107 98 63 181 115 183 115 3 0
5 -10 5 -23 0 -33 30 -118 49 -141 55 -64 147 -84 219 -47 51 26 69 48 92 116
17 49 20 84 20 217 l0 158 -386 0 c-254 0 -383 -3 -379 -10z m733 -182 c-4
-201 -14 -236 -83 -275 -49 -28 -94 -29 -143 -4 -83 42 -102 99 -102 303 l0
148 166 0 165 0 -3 -172z"/>
<path d="M24155 57050 c-6 -10 27 -28 105 -55 l35 -12 3 -105 3 -106 -71 -27
c-68 -26 -88 -39 -73 -48 11 -6 456 166 460 178 2 6 -93 47 -209 92 -117 44
-220 84 -229 88 -10 3 -20 1 -24 -5z m348 -147 c37 -14 66 -27 65 -28 -2 -2
-56 -23 -120 -48 l-118 -44 0 93 0 94 53 -21 c28 -12 83 -32 120 -46z"/>
<path d="M24248 56602 c-9 -4 -30 -19 -47 -34 -86 -77 -52 -234 58 -267 55
-16 364 -15 359 2 -4 9 -53 13 -186 17 l-182 5 -32 33 c-30 30 -33 37 -33 96
0 50 4 69 20 86 38 43 74 50 250 50 103 0 165 4 165 10 0 11 -344 13 -372 2z"/>
<path d="M24157 56144 c-4 -4 -7 -67 -7 -141 0 -112 2 -133 15 -133 13 0 15
21 15 125 l0 125 221 0 c172 0 220 3 217 13 -4 9 -60 13 -229 15 -124 1 -228
-1 -232 -4z"/>
<path d="M24155 55841 c-6 -11 4 -17 90 -50 l50 -19 3 -104 3 -105 -76 -28
c-69 -25 -96 -45 -61 -45 24 0 450 167 453 177 2 6 -96 48 -218 94 -123 46
-226 85 -230 87 -4 2 -10 -2 -14 -7z m369 -155 c22 -9 37 -18 34 -21 -5 -5
-215 -85 -223 -85 -3 0 -5 40 -5 90 l0 89 78 -28 c42 -16 95 -36 116 -45z"/>
<path d="M10812 48009 c3 -8 35 -25 71 -39 l67 -25 0 -107 0 -106 -70 -28
c-63 -25 -89 -44 -58 -44 17 0 431 160 442 170 5 6 7 12 4 15 -5 5 -391 155
-437 170 -17 5 -22 4 -19 -6z m298 -126 c52 -19 98 -39 103 -42 4 -4 -47 -28
-113 -53 l-120 -45 0 94 c0 87 2 95 18 88 9 -4 60 -23 112 -42z"/>
<path d="M10934 47568 c-36 -5 -56 -16 -83 -43 -35 -34 -36 -38 -36 -110 0
-70 2 -76 33 -108 50 -51 85 -58 267 -55 222 4 210 22 -20 28 -153 4 -185 8
-209 23 -55 37 -71 133 -31 193 30 45 69 54 250 54 97 0 165 4 165 9 0 12
-269 19 -336 9z"/>
<path d="M10810 46970 c0 -87 4 -140 10 -140 6 0 10 48 10 125 l0 125 220 0
c189 0 220 2 220 15 0 13 -32 15 -230 15 l-230 0 0 -140z"/>
<path d="M10812 46798 c3 -7 35 -24 71 -38 l67 -25 0 -106 0 -107 -62 -22
c-67 -25 -86 -36 -75 -46 9 -10 457 159 457 172 0 9 -433 184 -455 184 -4 0
-5 -6 -3 -12z m269 -114 c52 -20 105 -41 119 -46 23 -9 15 -14 -85 -54 -60
-23 -116 -43 -122 -43 -10 -1 -13 23 -13 89 0 50 2 90 4 90 2 0 46 -16 97 -36z"/>
<path d="M32698 40413 c-35 -36 -48 -73 -48 -132 0 -100 39 -161 102 -161 82
0 117 38 163 178 29 89 50 112 101 112 54 0 69 -28 69 -130 0 -84 -1 -90 -29
-119 -37 -39 -26 -54 13 -17 66 63 68 198 3 269 -31 32 -64 35 -109 7 -35 -21
-52 -48 -78 -130 -10 -30 -26 -71 -36 -91 -29 -59 -98 -77 -137 -36 -56 60
-57 174 0 234 11 12 18 27 16 33 -2 6 -15 -2 -30 -17z"/>
<path d="M32655 40050 c-6 -10 5 -16 90 -49 l50 -19 3 -105 3 -105 -71 -27
c-68 -26 -96 -45 -66 -45 25 0 447 166 448 176 0 5 -85 42 -188 81 -104 40
-206 80 -226 88 -23 9 -39 11 -43 5z m308 -132 c59 -22 106 -42 105 -44 -2 -1
-50 -20 -108 -42 -58 -22 -113 -43 -122 -47 -16 -7 -18 1 -18 90 0 88 2 97 18
91 9 -4 65 -25 125 -48z"/>
<path d="M31870 39931 c0 -4 34 -21 75 -36 l75 -27 0 -107 0 -106 -75 -28
c-41 -16 -75 -32 -75 -38 0 -5 3 -9 8 -9 16 0 462 174 462 180 0 5 -8 11 -17
15 -154 60 -434 165 -442 165 -6 0 -11 -4 -11 -9z m350 -141 c70 -26 73 -29
50 -38 -91 -37 -213 -82 -221 -82 -5 0 -9 43 -9 95 l0 95 53 -21 c28 -12 86
-34 127 -49z"/>
<path d="M32650 39475 c0 -83 4 -135 10 -135 6 0 10 48 10 125 l0 125 226 0
c147 0 223 3 219 10 -4 6 -93 10 -236 10 l-229 0 0 -135z"/>
<path d="M31975 39488 c-77 -27 -119 -112 -96 -197 26 -99 58 -111 286 -111
100 0 175 4 175 9 0 5 -81 11 -184 13 l-185 3 -31 30 c-61 58 -59 162 4 209
25 19 46 22 207 26 109 3 179 9 179 15 0 14 -316 17 -355 3z"/>
<path d="M32650 39302 c0 -4 34 -20 75 -35 l76 -29 -3 -105 -3 -105 -70 -28
c-38 -15 -71 -32 -73 -39 -2 -6 0 -11 5 -10 27 1 457 176 455 184 -3 10 -427
175 -449 175 -7 0 -13 -3 -13 -8z m349 -140 l75 -29 -55 -21 c-29 -11 -85 -32
-123 -46 -37 -14 -70 -26 -72 -26 -2 0 -4 43 -4 95 l0 95 53 -20 c28 -11 86
-33 126 -48z"/>
<path d="M31876 39041 c-3 -5 41 -39 99 -77 58 -38 105 -71 105 -74 0 -3 -47
-36 -105 -74 -58 -38 -102 -72 -99 -77 6 -11 2 -13 129 71 l100 67 65 -44
c115 -78 159 -103 165 -93 3 5 -42 41 -101 81 l-106 71 103 69 c94 62 125 89
103 89 -5 0 -57 -32 -116 -71 -64 -42 -114 -69 -123 -66 -8 4 -54 33 -102 65
-113 75 -111 74 -117 63z"/>
<path d="M31875 38590 c4 -6 92 -10 230 -10 138 0 226 4 230 10 4 7 -75 10
-230 10 -155 0 -234 -3 -230 -10z"/>
<path d="M31870 38295 c0 -83 4 -135 10 -135 6 0 10 48 10 125 l0 125 219 0
c136 0 222 4 226 10 4 7 -75 10 -229 10 l-236 0 0 -135z"/>
<path d="M32650 38336 c0 -47 5 -97 11 -113 38 -102 202 -153 331 -102 100 39
128 87 128 223 l0 76 -235 0 -235 0 0 -84z m438 -30 c-4 -114 -15 -131 -113
-165 -79 -28 -141 -25 -211 10 -72 36 -87 63 -92 164 l-5 85 213 0 212 0 -4
-94z"/>
<path d="M31875 38060 c4 -6 92 -10 230 -10 138 0 226 4 230 10 4 7 -75 10
-230 10 -155 0 -234 -3 -230 -10z"/>
<path d="M32650 37830 c0 -93 4 -150 10 -150 6 0 10 52 10 135 l0 135 105 0
105 0 0 -80 c0 -47 4 -80 10 -80 6 0 10 33 10 80 l0 80 95 0 94 0 3 -130 c4
-182 23 -171 23 13 l0 142 -232 3 -233 2 0 -150z"/>
<path d="M32006 37914 c-89 -32 -136 -91 -136 -169 0 -82 52 -142 146 -171
120 -36 264 9 309 96 19 37 19 113 0 149 -46 90 -205 137 -319 95z m224 -37
c84 -43 114 -130 69 -203 -60 -98 -241 -121 -348 -44 -103 75 -66 222 67 265
62 20 153 12 212 -18z"/>
<path d="M31912 37425 c-82 -92 -36 -285 68 -285 22 0 51 9 71 23 33 22 42 38
94 180 42 116 131 126 164 18 22 -75 11 -130 -38 -183 -13 -15 -21 -31 -18
-35 11 -10 58 38 73 74 17 39 18 121 3 160 -15 41 -59 83 -86 83 -63 0 -101
-44 -138 -160 -26 -81 -42 -108 -75 -125 -64 -33 -109 -7 -131 78 -16 59 -1
129 37 168 15 15 21 29 16 33 -6 3 -24 -10 -40 -29z"/>
<path d="M33015 37080 c-4 -6 7 -31 25 -56 l31 -44 -210 0 c-134 0 -211 -4
-211 -10 0 -6 85 -10 235 -10 222 0 235 1 226 18 -5 9 -19 26 -32 37 -12 11
-30 33 -39 48 -12 19 -20 25 -25 17z"/>
<path d="M32950 36640 c0 -33 4 -60 10 -60 6 0 10 7 10 17 0 14 2 15 18 1 29
-26 59 -30 91 -13 38 19 49 56 27 90 -13 20 -25 25 -58 25 -25 0 -49 -7 -60
-17 -17 -15 -18 -15 -18 0 0 10 -4 17 -10 17 -6 0 -10 -27 -10 -60z m124 34
c9 -4 16 -18 16 -34 0 -29 -15 -40 -54 -40 -26 0 -46 17 -46 40 0 33 42 50 84
34z"/>
<path d="M56590 32200 c0 -6 69 -11 173 -12 l172 -3 5 -175 c4 -108 11 -186
18 -205 45 -103 173 -145 280 -91 96 49 112 96 112 328 l0 168 -380 0 c-241 0
-380 -4 -380 -10z m738 -164 c2 -118 -1 -160 -14 -200 -21 -65 -28 -72 -86
-102 -57 -29 -115 -31 -166 -5 -86 44 -102 92 -102 302 l0 159 183 -2 182 -3
3 -149z"/>
<path d="M19107 31614 c-4 -4 -7 -207 -7 -451 l0 -443 1087 -2 1086 -3 4
-3085 c2 -1697 2 -3206 1 -3355 -2 -148 -3 -1621 -3 -3273 l0 -3002 -1087 0
c-961 0 -1088 -2 -1088 -15 0 -11 11 -15 40 -15 l40 0 2 -432 3 -433 155 0
155 0 3 243 2 242 843 1 c463 0 952 3 1087 5 l245 5 3 6759 2 6760 -1090 0
-1090 0 -2 248 -3 247 -191 3 c-104 1 -193 -1 -197 -4z m2391 -1601 l3 -33
-95 0 -96 0 0 35 0 36 93 -3 92 -3 3 -32z m150 -2180 l2 -2213 -60 0 -60 0 0
2215 0 2216 58 -3 57 -3 3 -2212z m-260 0 l2 -2113 -40 0 -40 0 0 2116 0 2115
38 -3 37 -3 3 -2112z m110 0 l2 -2113 -40 0 -40 0 0 2116 0 2115 38 -3 37 -3
3 -2112z m2 -2183 l0 -30 -95 0 -95 0 0 30 0 30 95 0 95 0 0 -30z m0 -2585 l0
-35 -95 0 -95 0 0 35 0 35 95 0 95 0 0 -35z m150 -2180 l0 -2215 -60 0 -60 0
0 2215 0 2215 60 0 60 0 0 -2215z m-260 0 l0 -2115 -40 0 -40 0 0 2115 0 2115
40 0 40 0 0 -2115z m110 0 l0 -2115 -40 0 -40 0 0 2115 0 2115 40 0 40 0 0
-2115z m-2 -2182 l3 -33 -95 0 -96 0 0 35 0 36 93 -3 92 -3 3 -32z"/>
<path d="M56590 31561 c0 -8 80 -42 213 -91 l27 -10 -2 -182 -3 -183 -117 -44
c-105 -40 -143 -61 -105 -61 21 1 741 278 744 287 3 8 -729 293 -750 293 -4 0
-7 -4 -7 -9z m495 -198 c110 -41 203 -78 207 -82 6 -5 -416 -171 -435 -171 -4
0 -7 77 -7 171 0 159 1 171 18 164 9 -3 107 -40 217 -82z"/>
<path d="M57330 30810 l0 -120 -370 0 c-322 0 -370 -2 -370 -15 0 -13 48 -15
370 -15 l370 0 0 -120 c0 -73 4 -120 10 -120 6 0 10 92 10 255 0 163 -4 255
-10 255 -6 0 -10 -47 -10 -120z"/>
<path d="M56590 30250 c0 -6 131 -10 374 -10 239 0 377 4 381 10 4 7 -123 10
-374 10 -247 0 -381 -4 -381 -10z"/>
<path d="M56815 29997 c-84 -31 -114 -49 -162 -99 -54 -55 -73 -102 -73 -178
0 -117 67 -202 204 -259 76 -31 83 -32 195 -29 107 3 121 6 186 36 133 63 185
135 185 257 0 106 -37 169 -134 229 -106 66 -284 85 -401 43z m311 -27 c33
-11 82 -39 109 -61 68 -56 94 -107 95 -187 0 -107 -50 -175 -175 -234 -62 -29
-81 -33 -172 -36 -85 -3 -112 0 -158 17 -166 62 -215 121 -215 256 0 87 11
113 67 166 75 72 148 97 284 98 81 1 119 -4 165 -19z"/>
<path d="M56840 28483 c-8 -3 -40 -15 -69 -26 -66 -24 -146 -95 -172 -152 -26
-57 -25 -154 2 -208 27 -54 84 -113 131 -138 42 -22 48 -23 48 -9 0 5 -17 18
-37 29 -45 23 -94 73 -117 118 -21 41 -22 173 -2 212 24 45 99 107 162 132 51
21 76 24 184 24 115 0 129 -2 184 -27 120 -57 175 -130 176 -236 0 -43 -6 -74
-19 -100 -23 -44 -83 -103 -128 -126 -28 -14 -45 -36 -28 -36 18 0 76 38 113
74 65 61 82 101 82 191 0 121 -46 186 -175 247 -66 31 -76 33 -195 35 -69 1
-132 0 -140 -4z"/>
<path d="M56750 27699 c-74 -26 -124 -77 -150 -153 -25 -75 -25 -97 0 -172 15
-42 33 -73 63 -101 70 -68 101 -73 414 -73 175 0 273 4 273 10 0 6 -96 10
-268 10 -303 0 -339 6 -404 68 -86 81 -91 250 -10 336 55 58 71 61 387 66 186
3 289 9 288 15 -2 6 -102 11 -270 12 -243 2 -273 0 -323 -18z"/>
<path d="M56587 26933 c-4 -3 -7 -74 -7 -158 0 -128 3 -161 21 -216 12 -35 27
-70 32 -77 23 -29 106 -62 157 -62 34 0 67 8 98 24 57 29 65 38 82 91 l13 40
14 -39 c17 -52 28 -63 85 -92 60 -30 96 -30 156 0 96 49 112 96 112 328 l0
168 -378 0 c-208 0 -382 -3 -385 -7z m383 -172 c0 -210 -16 -258 -102 -302
-66 -34 -161 -17 -210 38 -38 41 -48 99 -48 264 l0 159 180 0 180 0 0 -159z
m358 14 c3 -139 -12 -237 -41 -273 -16 -21 -103 -62 -129 -62 -13 0 -45 13
-73 28 -46 25 -52 32 -72 92 -19 55 -22 87 -23 206 0 77 3 144 7 148 4 3 79 5
167 4 l161 -3 3 -140z"/>
<path d="M56590 26185 c0 -13 45 -15 378 -13 243 2 377 7 377 13 0 6 -134 11
-377 13 -333 2 -378 0 -378 -13z"/>
<path d="M56584 25905 c-9 -24 1 -465 11 -465 6 0 11 83 13 225 l2 225 180 0
180 0 0 -140 c0 -87 4 -140 10 -140 6 0 10 53 10 140 l0 140 170 0 170 0 0
-231 c0 -151 3 -228 10 -224 6 4 10 95 10 241 l0 234 -177 0 c-98 0 -270 2
-382 3 -131 1 -205 -2 -207 -8z"/>
<path d="M56590 25230 c0 -6 70 -10 190 -10 l190 0 0 -117 -1 -118 -189 -119
c-172 -108 -209 -136 -181 -136 5 0 90 52 188 115 l178 114 7 -37 c3 -20 15
-59 25 -87 16 -42 27 -55 73 -82 65 -40 104 -42 168 -9 60 30 67 39 92 111 17
49 20 84 20 222 l0 163 -380 0 c-247 0 -380 -4 -380 -10z m740 -158 c0 -124
-3 -158 -21 -210 -18 -54 -27 -66 -63 -87 -71 -41 -150 -31 -203 27 -37 40
-50 111 -52 271 l-2 147 171 0 170 0 0 -148z"/>
<path d="M10895 24930 c-6 -10 5 -16 90 -49 l50 -19 0 -107 0 -107 -65 -25
c-67 -25 -88 -38 -73 -45 12 -7 455 165 456 177 0 9 -110 54 -395 162 -34 13
-60 18 -63 13z m308 -132 c59 -22 106 -42 105 -44 -2 -1 -50 -20 -108 -42 -58
-22 -113 -43 -122 -47 -16 -7 -18 2 -18 90 0 88 2 97 18 91 9 -4 65 -25 125
-48z"/>
<path d="M57330 24486 l0 -126 -370 0 c-322 0 -370 -2 -370 -15 0 -13 48 -15
370 -15 l370 0 0 -120 c0 -73 4 -120 10 -120 6 0 10 91 10 254 0 159 -4 257
-10 261 -6 4 -10 -38 -10 -119z"/>
<path d="M10985 24478 c-11 -6 -32 -22 -47 -36 -83 -77 -48 -228 60 -260 49
-15 348 -16 357 -2 4 7 -49 10 -153 10 -211 0 -256 16 -281 100 -21 72 13 143
82 169 16 6 101 11 193 11 103 0 164 4 164 10 0 14 -349 13 -375 -2z"/>
<path d="M32298 24310 c-47 -14 -96 -49 -117 -84 -28 -44 -28 -129 -2 -173 25
-41 93 -80 163 -94 142 -29 288 62 288 179 0 108 -97 182 -235 181 -38 0 -82
-4 -97 -9z m219 -38 c61 -32 83 -68 83 -138 0 -53 -3 -60 -38 -93 -70 -67
-196 -82 -291 -35 -65 33 -91 72 -91 136 0 41 5 54 36 87 19 22 54 47 77 55
59 22 169 16 224 -12z"/>
<path d="M11068 24022 l-178 -2 0 -135 c0 -83 4 -135 10 -135 6 0 10 48 10
125 l0 125 219 0 c121 0 222 4 225 9 8 13 -76 16 -286 13z"/>
<path d="M56815 23951 c-162 -58 -235 -144 -235 -276 0 -97 54 -190 134 -232
229 -120 527 -60 620 124 23 47 22 173 -3 221 -38 73 -107 125 -219 163 -73
25 -226 25 -297 0z m287 -20 c162 -56 228 -130 228 -256 0 -76 -20 -122 -72
-171 -142 -135 -430 -137 -571 -5 -66 62 -77 86 -77 176 0 81 6 98 54 159 80
99 294 147 438 97z"/>
<path d="M32160 23820 c0 -6 45 -10 115 -10 l115 0 0 -85 c0 -109 18 -112 22
-2 l3 82 92 3 92 3 3 -136 c4 -187 22 -182 26 8 l3 147 -236 0 c-150 0 -235
-4 -235 -10z"/>
<path d="M10895 23720 c-6 -10 5 -16 90 -49 l50 -19 3 -105 3 -105 -76 -27
c-67 -25 -96 -45 -62 -45 25 0 450 165 450 175 0 8 -111 54 -395 162 -34 13
-60 18 -63 13z m292 -125 c64 -25 119 -47 121 -49 2 -2 -16 -11 -40 -19 -24
-8 -80 -29 -125 -46 l-83 -30 0 94 c0 52 2 95 5 95 2 0 57 -20 122 -45z"/>
<path d="M32160 23440 c0 -6 85 -10 236 -10 154 0 233 3 229 10 -4 6 -93 10
-236 10 -146 0 -229 -4 -229 -10z"/>
<path d="M32262 23274 c-114 -57 -145 -165 -70 -250 36 -40 84 -69 93 -54 3 5
-7 16 -23 24 -17 9 -41 29 -55 46 -89 106 13 240 183 239 120 0 220 -72 220
-158 0 -46 -31 -96 -75 -122 -19 -12 -35 -25 -35 -30 0 -15 15 -11 51 14 94
63 107 180 27 254 -72 68 -220 85 -316 37z"/>
<path d="M32160 22820 c0 -6 83 -10 229 -10 143 0 232 4 236 10 4 7 -75 10
-229 10 -151 0 -236 -4 -236 -10z"/>
<path d="M32160 22650 c0 -6 76 -10 208 -10 l207 0 -207 -138 c-114 -75 -206
-141 -204 -147 2 -6 87 -10 229 -10 145 0 227 4 227 10 0 6 -77 12 -202 15
l-201 5 202 134 c111 74 204 138 207 143 3 4 -101 8 -230 8 -151 0 -236 -4
-236 -10z"/>
<path d="M32160 22251 c0 -5 33 -22 73 -37 l72 -29 0 -105 0 -104 -70 -27
c-38 -15 -71 -32 -73 -38 -2 -6 0 -11 4 -11 16 0 440 164 452 175 10 9 -35 30
-213 98 -125 48 -231 87 -236 87 -5 0 -9 -4 -9 -9z m410 -170 c0 -6 -219 -91
-233 -91 -4 0 -7 42 -7 94 l0 93 120 -45 c66 -25 120 -48 120 -51z"/>
<path d="M11230 8085 l0 -75 -220 0 c-140 0 -220 -4 -220 -10 0 -6 80 -10 220
-10 l220 0 0 -70 c0 -94 18 -90 22 5 5 110 -2 235 -13 235 -5 0 -9 -34 -9 -75z"/>
<path d="M32169 8143 c0 -5 0 -55 1 -112 1 -120 15 -163 59 -185 58 -31 152
-11 166 34 8 25 21 26 27 2 6 -21 65 -52 100 -52 12 0 37 9 54 19 46 28 66 94
62 207 l-3 89 -232 3 c-128 1 -233 -1 -234 -5z m231 -103 c0 -139 -25 -180
-109 -180 -28 0 -48 7 -68 24 -27 23 -28 28 -31 135 l-4 111 106 0 106 0 0
-90z m210 -9 c0 -86 -3 -102 -23 -132 -43 -64 -135 -47 -156 28 -12 42 -15
186 -4 196 3 4 46 7 95 7 l88 0 0 -99z"/>
<path d="M10790 7811 c0 -4 34 -21 75 -36 l76 -27 -3 -105 -3 -105 -69 -26
c-38 -15 -71 -33 -74 -41 -3 -10 0 -12 14 -7 11 4 115 44 232 88 121 46 211
86 209 92 -4 11 -420 176 -444 176 -7 0 -13 -4 -13 -9z m338 -136 c40 -16 69
-31 65 -35 -7 -6 -98 -42 -215 -86 -16 -6 -18 3 -18 90 l0 96 48 -19 c26 -10
80 -31 120 -46z"/>
<path d="M32535 7703 c-11 -3 -25 -9 -32 -15 -7 -6 -14 -5 -18 2 -15 25 -25 6
-25 -50 0 -55 10 -75 25 -50 4 7 12 7 25 0 22 -12 80 -13 96 -2 44 29 35 93
-17 111 -17 6 -32 10 -33 10 -1 -1 -10 -4 -21 -6z m63 -35 c35 -35 -14 -82
-63 -60 -44 20 -26 72 25 72 14 0 31 -5 38 -12z"/>
<path d="M10790 7240 c0 -87 4 -140 10 -140 6 0 10 50 10 130 l0 130 220 0
c140 0 220 4 220 10 0 6 -83 10 -230 10 l-230 0 0 -140z"/>
<path d="M32393 6962 c-123 -47 -223 -91 -223 -96 0 -13 451 -186 463 -179 16
10 -9 22 -211 99 -123 47 -198 80 -190 85 7 4 99 41 205 81 110 41 193 78 193
85 0 7 -3 12 -7 12 -5 -1 -108 -40 -230 -87z"/>
<path d="M10790 6880 c0 -87 4 -140 10 -140 6 0 10 48 10 125 l0 125 220 0
c189 0 220 2 220 15 0 13 -32 15 -230 15 l-230 0 0 -140z"/>
<path d="M10790 6510 c0 -93 4 -150 10 -150 6 0 10 52 10 135 l0 135 105 0
105 0 0 -80 c0 -47 4 -80 10 -80 6 0 10 33 10 80 l0 80 95 0 95 0 0 -135 c0
-83 4 -135 10 -135 6 0 10 57 10 150 l0 150 -230 0 -230 0 0 -150z"/>
<path d="M32170 6651 c0 -4 30 -19 68 -33 l67 -25 0 -108 0 -108 -67 -25 c-38
-14 -68 -31 -68 -38 0 -11 15 -8 63 10 34 12 137 51 230 86 92 34 167 68 167
74 0 10 -421 176 -448 176 -6 0 -12 -4 -12 -9z m343 -138 c70 -27 73 -33 22
-51 -16 -5 -67 -24 -112 -41 l-83 -30 0 94 0 95 53 -21 c28 -12 83 -32 120
-46z"/>
<path d="M10790 6240 c0 -6 45 -10 115 -10 l116 0 -3 -67 -3 -67 -112 -71
c-105 -65 -129 -85 -103 -85 6 0 57 29 113 64 l102 65 15 -43 c20 -57 35 -74
80 -87 31 -9 43 -8 75 7 53 25 65 60 65 194 l0 110 -230 0 c-147 0 -230 -4
-230 -10z m438 -121 c-3 -107 -4 -112 -31 -135 -32 -27 -82 -32 -113 -10 -27
20 -41 74 -43 174 l-2 82 96 0 97 0 -4 -111z"/>
<path d="M32170 6210 c0 -6 44 -10 115 -10 l115 0 0 -65 0 -66 -115 -75 c-63
-41 -115 -79 -115 -85 0 -16 15 -8 128 65 56 36 102 60 102 53 0 -6 5 -29 11
-50 19 -69 101 -97 165 -58 46 28 66 94 62 207 l-3 89 -232 3 c-153 1 -233 -1
-233 -8z m440 -105 c0 -115 -14 -156 -59 -175 -45 -18 -96 6 -117 55 -14 35
-20 195 -7 208 3 4 46 7 95 7 l88 0 0 -95z"/>
<path d="M32325 5791 c-48 -12 -90 -37 -124 -76 -28 -32 -31 -42 -31 -100 0
-58 3 -68 32 -100 53 -61 100 -80 198 -80 92 0 129 13 183 64 39 35 57 73 57
116 0 122 -163 213 -315 176z m195 -43 c89 -45 118 -144 64 -216 -74 -96 -272
-103 -359 -12 -23 24 -30 41 -33 88 -4 52 -1 61 24 91 42 50 95 71 184 71 59
0 86 -5 120 -22z"/>
<path d="M32170 5295 c0 -12 32 -15 202 -17 l201 -3 -201 -134 c-111 -74 -202
-138 -202 -142 0 -5 104 -9 230 -9 147 0 230 4 230 10 0 6 -76 10 -207 10
l-207 0 207 138 c113 75 207 143 207 150 0 9 -52 12 -230 12 -196 0 -230 -2
-230 -15z"/>
<path d="M24547 4884 c-12 -12 -8 -184 5 -226 18 -60 58 -88 125 -88 47 0 59
4 84 29 l29 29 29 -29 c24 -23 38 -29 74 -29 93 0 130 67 125 225 l-3 90 -231
3 c-127 1 -233 -1 -237 -4z m233 -105 c0 -140 -28 -189 -110 -189 -75 0 -100
46 -100 180 l0 90 105 0 105 0 0 -81z m210 -9 c0 -128 -26 -180 -90 -180 -71
0 -100 55 -100 189 l0 81 95 0 95 0 0 -90z"/>
<path d="M32169 4836 c-9 -9 2 -296 12 -296 5 0 9 58 9 140 l0 140 105 0 105
0 0 -85 c0 -109 18 -112 22 -2 l3 82 92 3 92 3 3 -136 c4 -186 23 -180 23 8
l0 142 -231 3 c-127 1 -232 0 -235 -2z"/>
<path d="M32212 4438 c-30 -33 -42 -72 -42 -138 0 -104 36 -160 102 -160 77 0
107 29 143 140 29 91 53 129 91 147 35 17 35 17 66 -14 52 -52 52 -173 1 -233
-34 -42 -19 -53 17 -13 49 54 61 129 35 204 -33 93 -94 116 -159 59 -26 -23
-41 -52 -67 -126 -39 -112 -70 -147 -127 -142 -24 2 -41 11 -54 29 -40 53 -35
177 8 228 13 16 24 32 24 35 0 13 -17 5 -38 -16z"/>
<path d="M24840 4381 c0 -58 14 -88 26 -57 5 14 9 13 31 -1 34 -22 89 -8 111
29 15 26 15 29 -4 55 -25 34 -86 44 -114 18 -16 -14 -18 -14 -23 0 -14 34 -27
12 -27 -44z m135 23 c21 -22 16 -46 -14 -60 -31 -16 -65 -3 -69 27 -7 42 51
65 83 33z"/>
<path d="M24547 3714 c-13 -13 -7 -141 8 -185 21 -59 48 -85 112 -109 98 -37
237 -18 299 41 35 33 55 106 52 186 l-3 68 -231 3 c-127 1 -233 -1 -237 -4z
m442 -98 c-5 -102 -20 -129 -99 -168 -72 -36 -145 -37 -215 -4 -85 40 -99 63
-103 167 l-4 89 212 0 212 0 -3 -84z"/>
<path d="M24552 3273 c-40 -16 25 -23 229 -23 180 0 230 3 227 13 -4 9 -59 12
-224 14 -120 1 -225 -1 -232 -4z"/>
<path d="M24873 3115 c-39 -17 -66 -58 -94 -145 -31 -93 -44 -116 -77 -129
-78 -32 -132 18 -132 121 0 62 9 88 43 125 30 34 12 41 -22 9 -91 -87 -49
-286 60 -286 83 0 110 29 155 162 33 100 49 120 98 122 48 1 76 -31 83 -97 8
-64 -3 -111 -34 -147 -33 -40 -21 -52 16 -16 68 65 67 190 -2 264 -34 35 -47
38 -94 17z"/>
<path d="M24655 2678 c-77 -40 -115 -90 -115 -152 0 -66 34 -122 93 -153 45
-23 44 -6 -2 33 -53 46 -75 87 -68 131 19 115 178 176 322 122 62 -23 100 -64
110 -120 9 -47 -11 -85 -66 -133 -24 -20 -40 -38 -37 -42 11 -10 67 25 92 59
69 90 35 201 -79 253 -68 32 -191 33 -250 2z"/>
<path d="M24553 2214 c-3 -8 2 -23 11 -32 15 -15 17 -15 33 0 13 14 14 20 3
32 -16 20 -39 20 -47 0z"/>
<path d="M70995 12308 c-3 -7 -4 -233 -3 -503 l3 -490 180 0 180 0 0 500 0
500 -178 3 c-136 2 -179 0 -182 -10z m335 -493 l0 -475 -155 0 -155 0 0 475 0
475 155 0 155 0 0 -475z"/>
<path d="M71615 12308 c-3 -7 -4 -233 -3 -503 l3 -490 1170 0 1170 0 0 500 0
500 -1168 3 c-929 2 -1169 0 -1172 -10z m2315 -493 l0 -475 -1145 0 -1145 0 0
475 0 475 1145 0 1145 0 0 -475z"/>
<path d="M70990 10570 l0 -500 185 0 185 0 -2 498 -3 497 -182 3 -183 2 0
-500z m340 0 l0 -470 -155 0 -155 0 0 470 0 470 155 0 155 0 0 -470z"/>
<path d="M71610 10570 l0 -500 1175 0 1175 0 -2 498 -3 497 -1172 3 -1173 2 0
-500z m2320 0 l0 -470 -1145 0 -1145 0 0 470 0 470 1145 0 1145 0 0 -470z"/>
<path d="M70990 9360 l0 -500 185 0 185 0 0 500 0 500 -185 0 -185 0 0 -500z
m340 0 l0 -470 -155 0 -155 0 0 470 0 470 155 0 155 0 0 -470z"/>
<path d="M71610 9360 l0 -500 1175 0 1175 0 0 500 0 500 -1175 0 -1175 0 0
-500z m2320 0 l0 -470 -1145 0 -1145 0 0 470 0 470 1145 0 1145 0 0 -470z"/>
<path d="M85740 23690 l0 -250 464 0 463 0 6 -332 c8 -426 21 -516 98 -678 33
-70 56 -100 128 -171 151 -149 308 -209 550 -209 198 0 325 34 456 121 135 90
231 224 269 374 30 119 36 244 36 818 l0 577 -1235 0 -1235 0 0 -250z m2059
-352 c0 -57 -4 -191 -9 -298 -9 -214 -23 -275 -78 -351 -65 -88 -141 -123
-267 -123 -116 0 -175 25 -244 100 -87 95 -110 215 -111 577 l0 197 355 0 355
0 -1 -102z"/>
<path d="M85740 20750 l0 -870 210 0 210 0 0 620 0 620 1015 0 1015 0 0 250 0
250 -1225 0 -1225 0 0 -870z"/>
<path d="M85740 19506 l0 -263 118 -43 c64 -23 190 -69 280 -102 l162 -60 -2
-495 -3 -495 -277 -106 -278 -107 0 -272 0 -271 1233 493 1232 493 0 267 0
266 -1229 480 c-676 263 -1231 479 -1232 479 -2 0 -4 -119 -4 -264z m1437
-788 c244 -89 443 -164 443 -167 0 -4 -188 -76 -417 -161 -230 -84 -433 -160
-450 -167 l-33 -13 0 335 c0 184 3 335 7 335 4 0 206 -73 450 -162z"/>
<path d="M85740 16790 l0 -230 806 -2 806 -3 -804 -496 -803 -497 -3 -251 -2
-251 1235 0 1235 0 0 230 0 230 -821 2 -821 3 818 502 819 501 3 246 2 246
-1235 0 -1235 0 0 -230z"/>
<path d="M87800 14335 l0 -365 -1030 0 -1030 0 0 -250 0 -250 1030 0 1030 0 0
-365 0 -365 205 0 205 0 0 980 0 980 -205 0 -205 0 0 -365z"/>
<path d="M85740 12398 l0 -263 278 -101 277 -102 3 -494 2 -495 -280 -108
-280 -108 0 -269 c0 -147 3 -268 8 -268 4 0 559 221 1235 491 l1227 491 -2
266 -3 266 -1225 478 c-674 263 -1228 478 -1232 478 -5 0 -8 -118 -8 -262z
m1877 -959 c-18 -11 -880 -329 -889 -329 -4 0 -8 150 -8 334 l0 334 455 -166
c252 -92 449 -169 442 -173z"/>
<path d="M85740 8938 l0 -263 278 -101 277 -102 3 -494 2 -495 -280 -108 -280
-108 0 -269 c0 -147 3 -268 8 -268 4 0 559 221 1235 491 l1227 491 -2 266 -3
266 -1225 478 c-674 263 -1228 478 -1232 478 -5 0 -8 -118 -8 -262z m1877
-959 c-18 -11 -880 -329 -889 -329 -4 0 -8 150 -8 334 l0 334 455 -166 c252
-92 449 -169 442 -173z"/>
<path d="M85740 5575 l0 -875 208 2 207 3 3 623 2 622 1015 0 1015 0 0 250 0
250 -1225 0 -1225 0 0 -875z"/>
<path d="M87798 4163 l-3 -368 -1027 -3 -1028 -2 0 -250 0 -250 1030 0 1030 0
0 -365 0 -365 205 0 205 0 0 985 0 985 -205 0 -205 0 -2 -367z"/>
<path d="M85742 2224 l3 -266 278 -101 277 -100 -2 -495 -3 -496 -275 -106
-275 -107 -3 -272 c-1 -167 1 -271 7 -269 5 1 561 223 1235 493 l1226 490 0
266 0 266 -1187 463 c-654 254 -1209 471 -1236 481 l-47 19 2 -266z m1438
-789 c239 -87 438 -161 442 -164 4 -3 -194 -80 -439 -171 -245 -91 -449 -166
-454 -168 -5 -2 -9 142 -9 333 0 266 3 336 13 333 6 -3 208 -76 447 -163z"/>
</g>
</svg>
